<mxfile host="app.diagrams.net" modified="2023-04-05T05:19:56.098Z" agent="Mozilla/5.0 (Windows NT 10.0; Win64; x64) AppleWebKit/537.36 (KHTML, like Gecko) Chrome/111.0.0.0 Safari/537.36" etag="QgaCk6ocaiCE1FXxgxwe" version="21.1.1" type="github">
  <diagram name="Page-1" id="0783ab3e-0a74-02c8-0abd-f7b4e66b4bec">
    <mxGraphModel dx="3600" dy="2781" grid="1" gridSize="10" guides="1" tooltips="1" connect="1" arrows="1" fold="1" page="1" pageScale="1" pageWidth="850" pageHeight="1100" background="none" math="0" shadow="0">
      <root>
        <mxCell id="0" />
        <mxCell id="1" parent="0" />
        <mxCell id="1c1d494c118603dd-1" value="Pool" style="swimlane;html=1;childLayout=stackLayout;startSize=20;rounded=0;shadow=0;comic=0;labelBackgroundColor=none;strokeWidth=1;fontFamily=Verdana;fontSize=12;align=center;" parent="1" vertex="1">
          <mxGeometry x="40" y="20" width="750" height="990" as="geometry" />
        </mxCell>
        <mxCell id="1c1d494c118603dd-2" value="Lane 1" style="swimlane;html=1;startSize=20;" parent="1c1d494c118603dd-1" vertex="1">
          <mxGeometry y="20" width="250" height="970" as="geometry" />
        </mxCell>
        <mxCell id="1c1d494c118603dd-34" style="edgeStyle=none;rounded=0;html=1;labelBackgroundColor=none;startArrow=none;startFill=0;startSize=5;endArrow=classicThin;endFill=1;endSize=5;jettySize=auto;orthogonalLoop=1;strokeWidth=1;fontFamily=Verdana;fontSize=12" parent="1c1d494c118603dd-2" source="1c1d494c118603dd-6" target="1c1d494c118603dd-10" edge="1">
          <mxGeometry relative="1" as="geometry" />
        </mxCell>
        <mxCell id="1c1d494c118603dd-6" value="Action" style="rounded=1;whiteSpace=wrap;html=1;shadow=0;comic=0;labelBackgroundColor=none;strokeWidth=1;fontFamily=Verdana;fontSize=12;align=center;arcSize=50;" parent="1c1d494c118603dd-2" vertex="1">
          <mxGeometry x="90" y="220" width="100" height="30" as="geometry" />
        </mxCell>
        <mxCell id="1c1d494c118603dd-7" value="Action" style="rounded=1;whiteSpace=wrap;html=1;shadow=0;comic=0;labelBackgroundColor=none;strokeWidth=1;fontFamily=Verdana;fontSize=12;align=center;arcSize=50;" parent="1c1d494c118603dd-2" vertex="1">
          <mxGeometry x="80" y="335" width="100" height="30" as="geometry" />
        </mxCell>
        <mxCell id="1c1d494c118603dd-35" style="edgeStyle=none;rounded=0;html=1;labelBackgroundColor=none;startArrow=none;startFill=0;startSize=5;endArrow=classicThin;endFill=1;endSize=5;jettySize=auto;orthogonalLoop=1;strokeWidth=1;fontFamily=Verdana;fontSize=12" parent="1c1d494c118603dd-2" source="1c1d494c118603dd-10" target="1c1d494c118603dd-7" edge="1">
          <mxGeometry relative="1" as="geometry" />
        </mxCell>
        <mxCell id="1c1d494c118603dd-10" value="Object" style="rounded=0;whiteSpace=wrap;html=1;shadow=0;comic=0;labelBackgroundColor=none;strokeWidth=1;fontFamily=Verdana;fontSize=12;align=center;arcSize=50;" parent="1c1d494c118603dd-2" vertex="1">
          <mxGeometry x="140" y="280" width="70" height="30" as="geometry" />
        </mxCell>
        <mxCell id="1c1d494c118603dd-46" style="edgeStyle=none;rounded=0;html=1;labelBackgroundColor=none;startArrow=none;startFill=0;startSize=5;endArrow=oval;endFill=0;endSize=5;jettySize=auto;orthogonalLoop=1;strokeWidth=1;fontFamily=Verdana;fontSize=12;dashed=1;" parent="1c1d494c118603dd-2" source="1c1d494c118603dd-21" target="1c1d494c118603dd-6" edge="1">
          <mxGeometry relative="1" as="geometry" />
        </mxCell>
        <mxCell id="1c1d494c118603dd-47" style="edgeStyle=none;rounded=0;html=1;dashed=1;labelBackgroundColor=none;startArrow=none;startFill=0;startSize=5;endArrow=oval;endFill=0;endSize=5;jettySize=auto;orthogonalLoop=1;strokeWidth=1;fontFamily=Verdana;fontSize=12" parent="1c1d494c118603dd-2" source="1c1d494c118603dd-21" target="1c1d494c118603dd-10" edge="1">
          <mxGeometry relative="1" as="geometry" />
        </mxCell>
        <mxCell id="1c1d494c118603dd-21" value="Note" style="shape=note;whiteSpace=wrap;html=1;rounded=0;shadow=0;comic=0;labelBackgroundColor=none;strokeWidth=1;fontFamily=Verdana;fontSize=12;align=center;size=20;" parent="1c1d494c118603dd-2" vertex="1">
          <mxGeometry x="20" y="274" width="85" height="42" as="geometry" />
        </mxCell>
        <mxCell id="1c1d494c118603dd-3" value="Lane 2" style="swimlane;html=1;startSize=20;" parent="1c1d494c118603dd-1" vertex="1">
          <mxGeometry x="250" y="20" width="250" height="970" as="geometry" />
        </mxCell>
        <mxCell id="60571a20871a0731-3" value="" style="whiteSpace=wrap;html=1;rounded=0;shadow=0;comic=0;labelBackgroundColor=none;strokeWidth=1;fillColor=#000000;fontFamily=Verdana;fontSize=12;align=center;rotation=0;" parent="1c1d494c118603dd-3" vertex="1">
          <mxGeometry x="30" y="160" width="147" height="10" as="geometry" />
        </mxCell>
        <mxCell id="1c1d494c118603dd-40" style="edgeStyle=none;rounded=0;html=1;labelBackgroundColor=none;startArrow=none;startFill=0;startSize=5;endArrow=classicThin;endFill=1;endSize=5;jettySize=auto;orthogonalLoop=1;strokeWidth=1;fontFamily=Verdana;fontSize=12" parent="1c1d494c118603dd-3" source="1c1d494c118603dd-11" target="1c1d494c118603dd-15" edge="1">
          <mxGeometry relative="1" as="geometry" />
        </mxCell>
        <mxCell id="1c1d494c118603dd-11" value="Action" style="rounded=1;whiteSpace=wrap;html=1;shadow=0;comic=0;labelBackgroundColor=none;strokeWidth=1;fontFamily=Verdana;fontSize=12;align=center;arcSize=50;" parent="1c1d494c118603dd-3" vertex="1">
          <mxGeometry x="64" y="450" width="100" height="30" as="geometry" />
        </mxCell>
        <mxCell id="1c1d494c118603dd-39" style="edgeStyle=none;rounded=0;html=1;labelBackgroundColor=none;startArrow=none;startFill=0;startSize=5;endArrow=classicThin;endFill=1;endSize=5;jettySize=auto;orthogonalLoop=1;strokeWidth=1;fontFamily=Verdana;fontSize=12" parent="1c1d494c118603dd-3" source="1c1d494c118603dd-12" target="1c1d494c118603dd-11" edge="1">
          <mxGeometry relative="1" as="geometry" />
        </mxCell>
        <mxCell id="1c1d494c118603dd-12" value="" style="whiteSpace=wrap;html=1;rounded=0;shadow=0;comic=0;labelBackgroundColor=none;strokeWidth=1;fillColor=#000000;fontFamily=Verdana;fontSize=12;align=center;rotation=0;" parent="1c1d494c118603dd-3" vertex="1">
          <mxGeometry x="40" y="410" width="147" height="10" as="geometry" />
        </mxCell>
        <mxCell id="1c1d494c118603dd-32" style="edgeStyle=orthogonalEdgeStyle;rounded=0;html=1;entryX=0.25;entryY=0;labelBackgroundColor=none;startArrow=none;startFill=0;startSize=5;endArrow=classicThin;endFill=1;endSize=5;jettySize=auto;orthogonalLoop=1;strokeWidth=1;fontFamily=Verdana;fontSize=12" parent="1c1d494c118603dd-3" source="1c1d494c118603dd-14" target="1c1d494c118603dd-12" edge="1">
          <mxGeometry relative="1" as="geometry" />
        </mxCell>
        <mxCell id="1c1d494c118603dd-14" value="Object" style="rounded=0;whiteSpace=wrap;html=1;shadow=0;comic=0;labelBackgroundColor=none;strokeWidth=1;fontFamily=Verdana;fontSize=12;align=center;arcSize=50;" parent="1c1d494c118603dd-3" vertex="1">
          <mxGeometry x="-40" y="365" width="70" height="30" as="geometry" />
        </mxCell>
        <mxCell id="1c1d494c118603dd-41" style="edgeStyle=none;rounded=0;html=1;labelBackgroundColor=none;startArrow=none;startFill=0;startSize=5;endArrow=classicThin;endFill=1;endSize=5;jettySize=auto;orthogonalLoop=1;strokeWidth=1;fontFamily=Verdana;fontSize=12" parent="1c1d494c118603dd-3" source="1c1d494c118603dd-15" target="1c1d494c118603dd-16" edge="1">
          <mxGeometry relative="1" as="geometry" />
        </mxCell>
        <mxCell id="1c1d494c118603dd-15" value="Object" style="rounded=0;whiteSpace=wrap;html=1;shadow=0;comic=0;labelBackgroundColor=none;strokeWidth=1;fontFamily=Verdana;fontSize=12;align=center;arcSize=50;" parent="1c1d494c118603dd-3" vertex="1">
          <mxGeometry x="125" y="510" width="70" height="30" as="geometry" />
        </mxCell>
        <mxCell id="1c1d494c118603dd-16" value="Action" style="rounded=1;whiteSpace=wrap;html=1;shadow=0;comic=0;labelBackgroundColor=none;strokeWidth=1;fontFamily=Verdana;fontSize=12;align=center;arcSize=50;" parent="1c1d494c118603dd-3" vertex="1">
          <mxGeometry x="85" y="580" width="100" height="30" as="geometry" />
        </mxCell>
        <mxCell id="1c1d494c118603dd-52" style="edgeStyle=none;rounded=0;html=1;dashed=1;labelBackgroundColor=none;startArrow=none;startFill=0;startSize=5;endArrow=oval;endFill=0;endSize=5;jettySize=auto;orthogonalLoop=1;strokeWidth=1;fontFamily=Verdana;fontSize=12" parent="1c1d494c118603dd-3" source="1c1d494c118603dd-23" target="1c1d494c118603dd-11" edge="1">
          <mxGeometry relative="1" as="geometry" />
        </mxCell>
        <mxCell id="1c1d494c118603dd-53" style="edgeStyle=none;rounded=0;html=1;dashed=1;labelBackgroundColor=none;startArrow=none;startFill=0;startSize=5;endArrow=oval;endFill=0;endSize=5;jettySize=auto;orthogonalLoop=1;strokeWidth=1;fontFamily=Verdana;fontSize=12" parent="1c1d494c118603dd-3" source="1c1d494c118603dd-23" target="1c1d494c118603dd-15" edge="1">
          <mxGeometry relative="1" as="geometry" />
        </mxCell>
        <mxCell id="1c1d494c118603dd-23" value="Note" style="shape=note;whiteSpace=wrap;html=1;rounded=0;shadow=0;comic=0;labelBackgroundColor=none;strokeWidth=1;fontFamily=Verdana;fontSize=12;align=center;size=20;" parent="1c1d494c118603dd-3" vertex="1">
          <mxGeometry x="10" y="510" width="90" height="55" as="geometry" />
        </mxCell>
        <mxCell id="1c1d494c118603dd-54" style="edgeStyle=none;rounded=0;html=1;dashed=1;labelBackgroundColor=none;startArrow=none;startFill=0;startSize=5;endArrow=oval;endFill=0;endSize=5;jettySize=auto;orthogonalLoop=1;strokeWidth=1;fontFamily=Verdana;fontSize=12" parent="1c1d494c118603dd-3" source="1c1d494c118603dd-24" target="1c1d494c118603dd-16" edge="1">
          <mxGeometry relative="1" as="geometry" />
        </mxCell>
        <mxCell id="1c1d494c118603dd-24" value="Note" style="shape=note;whiteSpace=wrap;html=1;rounded=0;shadow=0;comic=0;labelBackgroundColor=none;strokeWidth=1;fontFamily=Verdana;fontSize=12;align=center;size=20;" parent="1c1d494c118603dd-3" vertex="1">
          <mxGeometry x="40" y="648" width="105" height="55" as="geometry" />
        </mxCell>
        <mxCell id="1c1d494c118603dd-4" value="Lane 3" style="swimlane;html=1;startSize=20;" parent="1c1d494c118603dd-1" vertex="1">
          <mxGeometry x="500" y="20" width="250" height="970" as="geometry" />
        </mxCell>
        <mxCell id="1c1d494c118603dd-27" style="edgeStyle=orthogonalEdgeStyle;rounded=0;html=1;labelBackgroundColor=none;startArrow=none;startFill=0;startSize=5;endArrow=classicThin;endFill=1;endSize=5;jettySize=auto;orthogonalLoop=1;strokeWidth=1;fontFamily=Verdana;fontSize=12" parent="1c1d494c118603dd-4" source="60571a20871a0731-4" target="60571a20871a0731-8" edge="1">
          <mxGeometry relative="1" as="geometry" />
        </mxCell>
        <mxCell id="60571a20871a0731-4" value="" style="ellipse;whiteSpace=wrap;html=1;rounded=0;shadow=0;comic=0;labelBackgroundColor=none;strokeWidth=1;fillColor=#000000;fontFamily=Verdana;fontSize=12;align=center;" parent="1c1d494c118603dd-4" vertex="1">
          <mxGeometry x="80" y="40" width="40" height="40" as="geometry" />
        </mxCell>
        <mxCell id="60571a20871a0731-8" value="Action" style="rounded=1;whiteSpace=wrap;html=1;shadow=0;comic=0;labelBackgroundColor=none;strokeWidth=1;fontFamily=Verdana;fontSize=12;align=center;arcSize=50;" parent="1c1d494c118603dd-4" vertex="1">
          <mxGeometry x="50" y="110" width="100" height="30" as="geometry" />
        </mxCell>
        <mxCell id="1c1d494c118603dd-33" style="rounded=0;html=1;labelBackgroundColor=none;startArrow=none;startFill=0;startSize=5;endArrow=classicThin;endFill=1;endSize=5;jettySize=auto;orthogonalLoop=1;strokeWidth=1;fontFamily=Verdana;fontSize=12" parent="1c1d494c118603dd-4" source="1c1d494c118603dd-5" target="1c1d494c118603dd-9" edge="1">
          <mxGeometry relative="1" as="geometry" />
        </mxCell>
        <mxCell id="1c1d494c118603dd-5" value="Action" style="rounded=1;whiteSpace=wrap;html=1;shadow=0;comic=0;labelBackgroundColor=none;strokeWidth=1;fontFamily=Verdana;fontSize=12;align=center;arcSize=50;" parent="1c1d494c118603dd-4" vertex="1">
          <mxGeometry x="45" y="208" width="100" height="30" as="geometry" />
        </mxCell>
        <mxCell id="1c1d494c118603dd-38" style="edgeStyle=none;rounded=0;html=1;labelBackgroundColor=none;startArrow=none;startFill=0;startSize=5;endArrow=classicThin;endFill=1;endSize=5;jettySize=auto;orthogonalLoop=1;strokeWidth=1;fontFamily=Verdana;fontSize=12" parent="1c1d494c118603dd-4" source="1c1d494c118603dd-8" target="1c1d494c118603dd-13" edge="1">
          <mxGeometry relative="1" as="geometry" />
        </mxCell>
        <mxCell id="1c1d494c118603dd-8" value="Action" style="rounded=1;whiteSpace=wrap;html=1;shadow=0;comic=0;labelBackgroundColor=none;strokeWidth=1;fontFamily=Verdana;fontSize=12;align=center;arcSize=50;" parent="1c1d494c118603dd-4" vertex="1">
          <mxGeometry x="85" y="330" width="100" height="30" as="geometry" />
        </mxCell>
        <mxCell id="1c1d494c118603dd-37" style="edgeStyle=none;rounded=0;html=1;labelBackgroundColor=none;startArrow=none;startFill=0;startSize=5;endArrow=classicThin;endFill=1;endSize=5;jettySize=auto;orthogonalLoop=1;strokeWidth=1;fontFamily=Verdana;fontSize=12" parent="1c1d494c118603dd-4" source="1c1d494c118603dd-9" target="1c1d494c118603dd-8" edge="1">
          <mxGeometry relative="1" as="geometry" />
        </mxCell>
        <mxCell id="1c1d494c118603dd-9" value="Object" style="rounded=0;whiteSpace=wrap;html=1;shadow=0;comic=0;labelBackgroundColor=none;strokeWidth=1;fontFamily=Verdana;fontSize=12;align=center;arcSize=50;" parent="1c1d494c118603dd-4" vertex="1">
          <mxGeometry x="15" y="268" width="70" height="30" as="geometry" />
        </mxCell>
        <mxCell id="1c1d494c118603dd-13" value="Object" style="rounded=0;whiteSpace=wrap;html=1;shadow=0;comic=0;labelBackgroundColor=none;strokeWidth=1;fontFamily=Verdana;fontSize=12;align=center;arcSize=50;" parent="1c1d494c118603dd-4" vertex="1">
          <mxGeometry x="-35" y="360" width="70" height="30" as="geometry" />
        </mxCell>
        <mxCell id="1c1d494c118603dd-43" style="edgeStyle=none;rounded=0;html=1;labelBackgroundColor=none;startArrow=none;startFill=0;startSize=5;endArrow=classicThin;endFill=1;endSize=5;jettySize=auto;orthogonalLoop=1;strokeWidth=1;fontFamily=Verdana;fontSize=12" parent="1c1d494c118603dd-4" source="1c1d494c118603dd-17" target="1c1d494c118603dd-18" edge="1">
          <mxGeometry relative="1" as="geometry" />
        </mxCell>
        <mxCell id="1c1d494c118603dd-17" value="Object" style="rounded=0;whiteSpace=wrap;html=1;shadow=0;comic=0;labelBackgroundColor=none;strokeWidth=1;fontFamily=Verdana;fontSize=12;align=center;arcSize=50;" parent="1c1d494c118603dd-4" vertex="1">
          <mxGeometry x="-35" y="610" width="70" height="30" as="geometry" />
        </mxCell>
        <mxCell id="1c1d494c118603dd-44" style="edgeStyle=none;rounded=0;html=1;labelBackgroundColor=none;startArrow=none;startFill=0;startSize=5;endArrow=classicThin;endFill=1;endSize=5;jettySize=auto;orthogonalLoop=1;strokeWidth=1;fontFamily=Verdana;fontSize=12" parent="1c1d494c118603dd-4" source="1c1d494c118603dd-18" target="1c1d494c118603dd-19" edge="1">
          <mxGeometry relative="1" as="geometry" />
        </mxCell>
        <mxCell id="1c1d494c118603dd-18" value="Action" style="rounded=1;whiteSpace=wrap;html=1;shadow=0;comic=0;labelBackgroundColor=none;strokeWidth=1;fontFamily=Verdana;fontSize=12;align=center;arcSize=50;" parent="1c1d494c118603dd-4" vertex="1">
          <mxGeometry x="70" y="670" width="100" height="30" as="geometry" />
        </mxCell>
        <mxCell id="1c1d494c118603dd-45" style="edgeStyle=none;rounded=0;html=1;labelBackgroundColor=none;startArrow=none;startFill=0;startSize=5;endArrow=classicThin;endFill=1;endSize=5;jettySize=auto;orthogonalLoop=1;strokeWidth=1;fontFamily=Verdana;fontSize=12" parent="1c1d494c118603dd-4" source="1c1d494c118603dd-19" target="60571a20871a0731-5" edge="1">
          <mxGeometry relative="1" as="geometry" />
        </mxCell>
        <mxCell id="1c1d494c118603dd-19" value="Action" style="rounded=1;whiteSpace=wrap;html=1;shadow=0;comic=0;labelBackgroundColor=none;strokeWidth=1;fontFamily=Verdana;fontSize=12;align=center;arcSize=50;" parent="1c1d494c118603dd-4" vertex="1">
          <mxGeometry x="70" y="810" width="100" height="30" as="geometry" />
        </mxCell>
        <mxCell id="60571a20871a0731-5" value="" style="shape=mxgraph.bpmn.shape;html=1;verticalLabelPosition=bottom;labelBackgroundColor=#ffffff;verticalAlign=top;perimeter=ellipsePerimeter;outline=end;symbol=terminate;rounded=0;shadow=0;comic=0;strokeWidth=1;fontFamily=Verdana;fontSize=12;align=center;" parent="1c1d494c118603dd-4" vertex="1">
          <mxGeometry x="100" y="880" width="40" height="40" as="geometry" />
        </mxCell>
        <mxCell id="1c1d494c118603dd-48" style="edgeStyle=none;rounded=0;html=1;dashed=1;labelBackgroundColor=none;startArrow=none;startFill=0;startSize=5;endArrow=oval;endFill=0;endSize=5;jettySize=auto;orthogonalLoop=1;strokeWidth=1;fontFamily=Verdana;fontSize=12" parent="1c1d494c118603dd-4" source="1c1d494c118603dd-20" target="1c1d494c118603dd-5" edge="1">
          <mxGeometry relative="1" as="geometry" />
        </mxCell>
        <mxCell id="1c1d494c118603dd-49" style="edgeStyle=none;rounded=0;html=1;dashed=1;labelBackgroundColor=none;startArrow=none;startFill=0;startSize=5;endArrow=oval;endFill=0;endSize=5;jettySize=auto;orthogonalLoop=1;strokeWidth=1;fontFamily=Verdana;fontSize=12" parent="1c1d494c118603dd-4" source="1c1d494c118603dd-20" target="1c1d494c118603dd-9" edge="1">
          <mxGeometry relative="1" as="geometry" />
        </mxCell>
        <mxCell id="1c1d494c118603dd-20" value="Note" style="shape=note;whiteSpace=wrap;html=1;rounded=0;shadow=0;comic=0;labelBackgroundColor=none;strokeWidth=1;fontFamily=Verdana;fontSize=12;align=center;size=20;" parent="1c1d494c118603dd-4" vertex="1">
          <mxGeometry x="160" y="256" width="75" height="44" as="geometry" />
        </mxCell>
        <mxCell id="1c1d494c118603dd-50" style="edgeStyle=none;rounded=0;html=1;dashed=1;labelBackgroundColor=none;startArrow=none;startFill=0;startSize=5;endArrow=oval;endFill=0;endSize=5;jettySize=auto;orthogonalLoop=1;strokeWidth=1;fontFamily=Verdana;fontSize=12" parent="1c1d494c118603dd-4" source="1c1d494c118603dd-22" target="1c1d494c118603dd-8" edge="1">
          <mxGeometry relative="1" as="geometry" />
        </mxCell>
        <mxCell id="1c1d494c118603dd-51" style="edgeStyle=none;rounded=0;html=1;dashed=1;labelBackgroundColor=none;startArrow=none;startFill=0;startSize=5;endArrow=oval;endFill=0;endSize=5;jettySize=auto;orthogonalLoop=1;strokeWidth=1;fontFamily=Verdana;fontSize=12" parent="1c1d494c118603dd-4" source="1c1d494c118603dd-22" target="1c1d494c118603dd-13" edge="1">
          <mxGeometry relative="1" as="geometry" />
        </mxCell>
        <mxCell id="1c1d494c118603dd-22" value="Note" style="shape=note;whiteSpace=wrap;html=1;rounded=0;shadow=0;comic=0;labelBackgroundColor=none;strokeWidth=1;fontFamily=Verdana;fontSize=12;align=center;size=20;" parent="1c1d494c118603dd-4" vertex="1">
          <mxGeometry x="110" y="415" width="105" height="55" as="geometry" />
        </mxCell>
        <mxCell id="1c1d494c118603dd-56" style="edgeStyle=none;rounded=0;html=1;dashed=1;labelBackgroundColor=none;startArrow=none;startFill=0;startSize=5;endArrow=oval;endFill=0;endSize=5;jettySize=auto;orthogonalLoop=1;strokeWidth=1;fontFamily=Verdana;fontSize=12" parent="1c1d494c118603dd-4" source="1c1d494c118603dd-25" target="1c1d494c118603dd-18" edge="1">
          <mxGeometry relative="1" as="geometry" />
        </mxCell>
        <mxCell id="1c1d494c118603dd-57" style="edgeStyle=none;rounded=0;html=1;dashed=1;labelBackgroundColor=none;startArrow=none;startFill=0;startSize=5;endArrow=oval;endFill=0;endSize=5;jettySize=auto;orthogonalLoop=1;strokeWidth=1;fontFamily=Verdana;fontSize=12" parent="1c1d494c118603dd-4" source="1c1d494c118603dd-25" target="1c1d494c118603dd-17" edge="1">
          <mxGeometry relative="1" as="geometry" />
        </mxCell>
        <mxCell id="1c1d494c118603dd-25" value="Note" style="shape=note;whiteSpace=wrap;html=1;rounded=0;shadow=0;comic=0;labelBackgroundColor=none;strokeWidth=1;fontFamily=Verdana;fontSize=12;align=center;size=20;" parent="1c1d494c118603dd-4" vertex="1">
          <mxGeometry x="120" y="590" width="115" height="50" as="geometry" />
        </mxCell>
        <mxCell id="1c1d494c118603dd-58" style="edgeStyle=none;rounded=0;html=1;dashed=1;labelBackgroundColor=none;startArrow=none;startFill=0;startSize=5;endArrow=oval;endFill=0;endSize=5;jettySize=auto;orthogonalLoop=1;strokeWidth=1;fontFamily=Verdana;fontSize=12" parent="1c1d494c118603dd-4" source="1c1d494c118603dd-26" target="1c1d494c118603dd-19" edge="1">
          <mxGeometry relative="1" as="geometry" />
        </mxCell>
        <mxCell id="1c1d494c118603dd-26" value="Note" style="shape=note;whiteSpace=wrap;html=1;rounded=0;shadow=0;comic=0;labelBackgroundColor=none;strokeWidth=1;fontFamily=Verdana;fontSize=12;align=center;size=20;" parent="1c1d494c118603dd-4" vertex="1">
          <mxGeometry x="150" y="740" width="95" height="45" as="geometry" />
        </mxCell>
        <mxCell id="1c1d494c118603dd-28" style="edgeStyle=orthogonalEdgeStyle;rounded=0;html=1;entryX=0.5;entryY=0;labelBackgroundColor=none;startArrow=none;startFill=0;startSize=5;endArrow=classicThin;endFill=1;endSize=5;jettySize=auto;orthogonalLoop=1;strokeWidth=1;fontFamily=Verdana;fontSize=12" parent="1c1d494c118603dd-1" source="60571a20871a0731-8" target="60571a20871a0731-3" edge="1">
          <mxGeometry relative="1" as="geometry">
            <Array as="points">
              <mxPoint x="354" y="145" />
            </Array>
          </mxGeometry>
        </mxCell>
        <mxCell id="1c1d494c118603dd-29" style="edgeStyle=orthogonalEdgeStyle;rounded=0;html=1;exitX=0.75;exitY=1;labelBackgroundColor=none;startArrow=none;startFill=0;startSize=5;endArrow=classicThin;endFill=1;endSize=5;jettySize=auto;orthogonalLoop=1;strokeWidth=1;fontFamily=Verdana;fontSize=12" parent="1c1d494c118603dd-1" source="60571a20871a0731-3" target="1c1d494c118603dd-5" edge="1">
          <mxGeometry relative="1" as="geometry">
            <Array as="points">
              <mxPoint x="390" y="210" />
              <mxPoint x="595" y="210" />
            </Array>
          </mxGeometry>
        </mxCell>
        <mxCell id="1c1d494c118603dd-30" style="edgeStyle=orthogonalEdgeStyle;rounded=0;html=1;exitX=0.25;exitY=1;entryX=0.5;entryY=0;labelBackgroundColor=none;startArrow=none;startFill=0;startSize=5;endArrow=classicThin;endFill=1;endSize=5;jettySize=auto;orthogonalLoop=1;strokeWidth=1;fontFamily=Verdana;fontSize=12" parent="1c1d494c118603dd-1" source="60571a20871a0731-3" target="1c1d494c118603dd-6" edge="1">
          <mxGeometry relative="1" as="geometry">
            <Array as="points">
              <mxPoint x="317" y="210" />
              <mxPoint x="140" y="210" />
            </Array>
          </mxGeometry>
        </mxCell>
        <mxCell id="1c1d494c118603dd-31" style="edgeStyle=orthogonalEdgeStyle;rounded=0;html=1;entryX=0.75;entryY=0;labelBackgroundColor=none;startArrow=none;startFill=0;startSize=5;endArrow=classicThin;endFill=1;endSize=5;jettySize=auto;orthogonalLoop=1;strokeWidth=1;fontFamily=Verdana;fontSize=12" parent="1c1d494c118603dd-1" source="1c1d494c118603dd-13" target="1c1d494c118603dd-12" edge="1">
          <mxGeometry relative="1" as="geometry" />
        </mxCell>
        <mxCell id="1c1d494c118603dd-36" style="edgeStyle=none;rounded=0;html=1;labelBackgroundColor=none;startArrow=none;startFill=0;startSize=5;endArrow=classicThin;endFill=1;endSize=5;jettySize=auto;orthogonalLoop=1;strokeWidth=1;fontFamily=Verdana;fontSize=12" parent="1c1d494c118603dd-1" source="1c1d494c118603dd-7" target="1c1d494c118603dd-14" edge="1">
          <mxGeometry relative="1" as="geometry" />
        </mxCell>
        <mxCell id="1c1d494c118603dd-42" style="edgeStyle=none;rounded=0;html=1;labelBackgroundColor=none;startArrow=none;startFill=0;startSize=5;endArrow=classicThin;endFill=1;endSize=5;jettySize=auto;orthogonalLoop=1;strokeWidth=1;fontFamily=Verdana;fontSize=12" parent="1c1d494c118603dd-1" source="1c1d494c118603dd-16" target="1c1d494c118603dd-17" edge="1">
          <mxGeometry relative="1" as="geometry" />
        </mxCell>
        <mxCell id="1c1d494c118603dd-55" style="edgeStyle=none;rounded=0;html=1;dashed=1;labelBackgroundColor=none;startArrow=none;startFill=0;startSize=5;endArrow=oval;endFill=0;endSize=5;jettySize=auto;orthogonalLoop=1;strokeWidth=1;fontFamily=Verdana;fontSize=12" parent="1c1d494c118603dd-1" source="1c1d494c118603dd-24" target="1c1d494c118603dd-17" edge="1">
          <mxGeometry relative="1" as="geometry" />
        </mxCell>
        <mxCell id="o4eWTq-BV1PpkTGMYe8c-1" value="" style="line;strokeWidth=1;fillColor=none;align=left;verticalAlign=middle;spacingTop=-1;spacingLeft=3;spacingRight=3;rotatable=0;labelPosition=right;points=[];portConstraint=eastwest;strokeColor=inherit;" parent="1" vertex="1">
          <mxGeometry x="-1930" y="-870" width="2850" height="8" as="geometry" />
        </mxCell>
        <mxCell id="o4eWTq-BV1PpkTGMYe8c-3" value="" style="html=1;verticalAlign=bottom;endArrow=block;edgeStyle=elbowEdgeStyle;elbow=vertical;curved=0;rounded=0;exitX=0.055;exitY=0.975;exitDx=0;exitDy=0;exitPerimeter=0;" parent="1" edge="1">
          <mxGeometry x="-0.0024" width="80" relative="1" as="geometry">
            <mxPoint x="110.70000000000005" y="-866.2" as="sourcePoint" />
            <mxPoint x="111" y="-840" as="targetPoint" />
            <mxPoint as="offset" />
          </mxGeometry>
        </mxCell>
        <mxCell id="o4eWTq-BV1PpkTGMYe8c-5" value="capture&amp;nbsp;" style="html=1;whiteSpace=wrap;" parent="1" vertex="1">
          <mxGeometry x="60" y="-840" width="110" height="30" as="geometry" />
        </mxCell>
        <mxCell id="o4eWTq-BV1PpkTGMYe8c-6" value="image processing" style="html=1;whiteSpace=wrap;" parent="1" vertex="1">
          <mxGeometry x="60" y="-790" width="110" height="30" as="geometry" />
        </mxCell>
        <mxCell id="o4eWTq-BV1PpkTGMYe8c-7" value="" style="html=1;verticalAlign=bottom;endArrow=block;edgeStyle=elbowEdgeStyle;elbow=vertical;curved=0;rounded=0;exitX=0.5;exitY=1;exitDx=0;exitDy=0;" parent="1" source="o4eWTq-BV1PpkTGMYe8c-5" target="o4eWTq-BV1PpkTGMYe8c-6" edge="1">
          <mxGeometry x="-0.0024" width="80" relative="1" as="geometry">
            <mxPoint x="120.70000000000005" y="-856.2" as="sourcePoint" />
            <mxPoint x="121" y="-830" as="targetPoint" />
            <mxPoint as="offset" />
          </mxGeometry>
        </mxCell>
        <mxCell id="o4eWTq-BV1PpkTGMYe8c-8" value="" style="rhombus;whiteSpace=wrap;html=1;" parent="1" vertex="1">
          <mxGeometry x="105" y="-730" width="20" height="30" as="geometry" />
        </mxCell>
        <mxCell id="o4eWTq-BV1PpkTGMYe8c-9" value="" style="html=1;verticalAlign=bottom;endArrow=block;edgeStyle=elbowEdgeStyle;elbow=vertical;curved=0;rounded=0;exitX=0.5;exitY=1;exitDx=0;exitDy=0;entryX=0.5;entryY=0;entryDx=0;entryDy=0;" parent="1" source="o4eWTq-BV1PpkTGMYe8c-6" target="o4eWTq-BV1PpkTGMYe8c-8" edge="1">
          <mxGeometry x="-0.0024" width="80" relative="1" as="geometry">
            <mxPoint x="125" y="-800" as="sourcePoint" />
            <mxPoint x="125" y="-780" as="targetPoint" />
            <mxPoint as="offset" />
          </mxGeometry>
        </mxCell>
        <mxCell id="o4eWTq-BV1PpkTGMYe8c-12" value="" style="html=1;verticalAlign=bottom;endArrow=block;edgeStyle=elbowEdgeStyle;elbow=vertical;curved=0;rounded=0;exitX=0.5;exitY=1;exitDx=0;exitDy=0;entryX=0.5;entryY=0;entryDx=0;entryDy=0;" parent="1" source="o4eWTq-BV1PpkTGMYe8c-8" edge="1">
          <mxGeometry x="-0.0024" width="80" relative="1" as="geometry">
            <mxPoint x="125" y="-750" as="sourcePoint" />
            <mxPoint x="115" y="-680" as="targetPoint" />
            <mxPoint as="offset" />
          </mxGeometry>
        </mxCell>
        <mxCell id="o4eWTq-BV1PpkTGMYe8c-15" value="" style="endArrow=classic;html=1;rounded=0;exitX=0;exitY=0.5;exitDx=0;exitDy=0;entryX=0;entryY=0.5;entryDx=0;entryDy=0;" parent="1" source="o4eWTq-BV1PpkTGMYe8c-8" target="o4eWTq-BV1PpkTGMYe8c-5" edge="1">
          <mxGeometry width="50" height="50" relative="1" as="geometry">
            <mxPoint x="390" y="-660" as="sourcePoint" />
            <mxPoint x="440" y="-710" as="targetPoint" />
            <Array as="points">
              <mxPoint x="30" y="-715" />
              <mxPoint x="30" y="-825" />
            </Array>
          </mxGeometry>
        </mxCell>
        <mxCell id="o4eWTq-BV1PpkTGMYe8c-20" value="" style="endArrow=classic;html=1;rounded=0;entryX=0;entryY=0.5;entryDx=0;entryDy=0;exitX=0;exitY=0.533;exitDx=0;exitDy=0;exitPerimeter=0;" parent="1" source="o4eWTq-BV1PpkTGMYe8c-23" target="o4eWTq-BV1PpkTGMYe8c-5" edge="1">
          <mxGeometry width="50" height="50" relative="1" as="geometry">
            <mxPoint x="67.63157894736833" y="-657.8947368421052" as="sourcePoint" />
            <mxPoint x="70" y="-815" as="targetPoint" />
            <Array as="points">
              <mxPoint x="30" y="-660" />
              <mxPoint x="30" y="-825" />
            </Array>
          </mxGeometry>
        </mxCell>
        <mxCell id="o4eWTq-BV1PpkTGMYe8c-21" value="detect?" style="text;html=1;strokeColor=none;fillColor=none;align=center;verticalAlign=middle;whiteSpace=wrap;rounded=0;" parent="1" vertex="1">
          <mxGeometry x="50" y="-740" width="60" height="30" as="geometry" />
        </mxCell>
        <mxCell id="o4eWTq-BV1PpkTGMYe8c-25" value="" style="group" parent="1" vertex="1" connectable="0">
          <mxGeometry x="70" y="-610" width="100" height="100" as="geometry" />
        </mxCell>
        <mxCell id="o4eWTq-BV1PpkTGMYe8c-29" value="" style="group" parent="o4eWTq-BV1PpkTGMYe8c-25" vertex="1" connectable="0">
          <mxGeometry y="-70" width="90" height="37.5" as="geometry" />
        </mxCell>
        <mxCell id="o4eWTq-BV1PpkTGMYe8c-23" value="send detect" style="rounded=0;whiteSpace=wrap;html=1;" parent="o4eWTq-BV1PpkTGMYe8c-29" vertex="1">
          <mxGeometry width="73.63636363636364" height="37.5" as="geometry" />
        </mxCell>
        <mxCell id="o4eWTq-BV1PpkTGMYe8c-24" value="" style="triangle;whiteSpace=wrap;html=1;" parent="o4eWTq-BV1PpkTGMYe8c-29" vertex="1">
          <mxGeometry x="73.63636363636364" width="16.363636363636367" height="37.5" as="geometry" />
        </mxCell>
        <mxCell id="o4eWTq-BV1PpkTGMYe8c-27" value="" style="line;strokeWidth=4;direction=south;html=1;perimeter=backbonePerimeter;points=[];outlineConnect=0;strokeColor=#ffffff;" parent="o4eWTq-BV1PpkTGMYe8c-29" vertex="1">
          <mxGeometry x="69.55" width="8.18" height="37.5" as="geometry" />
        </mxCell>
        <mxCell id="o4eWTq-BV1PpkTGMYe8c-34" value="" style="group" parent="1" vertex="1" connectable="0">
          <mxGeometry x="289.99545454545455" y="-847.5" width="114.18454545454546" height="37.5" as="geometry" />
        </mxCell>
        <mxCell id="o4eWTq-BV1PpkTGMYe8c-30" value="" style="group" parent="o4eWTq-BV1PpkTGMYe8c-34" vertex="1" connectable="0">
          <mxGeometry x="4.184545454545457" width="110" height="37.5" as="geometry" />
        </mxCell>
        <mxCell id="o4eWTq-BV1PpkTGMYe8c-31" value="&amp;nbsp; &amp;nbsp;receive detect" style="rounded=0;whiteSpace=wrap;html=1;" parent="o4eWTq-BV1PpkTGMYe8c-30" vertex="1">
          <mxGeometry width="110" height="37.5" as="geometry" />
        </mxCell>
        <mxCell id="o4eWTq-BV1PpkTGMYe8c-32" value="" style="triangle;whiteSpace=wrap;html=1;" parent="o4eWTq-BV1PpkTGMYe8c-30" vertex="1">
          <mxGeometry x="-0.003636363636360329" width="16.363636363636367" height="37.5" as="geometry" />
        </mxCell>
        <mxCell id="o4eWTq-BV1PpkTGMYe8c-33" value="" style="line;strokeWidth=4;direction=south;html=1;perimeter=backbonePerimeter;points=[];outlineConnect=0;strokeColor=#ffffff;" parent="o4eWTq-BV1PpkTGMYe8c-34" vertex="1">
          <mxGeometry y="1.25" width="8.181818181818183" height="36.25" as="geometry" />
        </mxCell>
        <mxCell id="o4eWTq-BV1PpkTGMYe8c-35" value="" style="html=1;verticalAlign=bottom;endArrow=block;edgeStyle=elbowEdgeStyle;elbow=vertical;curved=0;rounded=0;exitX=0.758;exitY=0.469;exitDx=0;exitDy=0;exitPerimeter=0;" parent="1" source="o4eWTq-BV1PpkTGMYe8c-1" target="o4eWTq-BV1PpkTGMYe8c-31" edge="1">
          <mxGeometry x="-0.0024" width="80" relative="1" as="geometry">
            <mxPoint x="120.70000000000005" y="-856.2" as="sourcePoint" />
            <mxPoint x="121" y="-830" as="targetPoint" />
            <mxPoint as="offset" />
          </mxGeometry>
        </mxCell>
        <mxCell id="o4eWTq-BV1PpkTGMYe8c-36" value="check defect type&amp;nbsp;" style="html=1;whiteSpace=wrap;" parent="1" vertex="1">
          <mxGeometry x="292.09000000000003" y="-790" width="110" height="30" as="geometry" />
        </mxCell>
        <mxCell id="o4eWTq-BV1PpkTGMYe8c-37" value="&amp;nbsp;do remedy method&amp;nbsp;" style="html=1;whiteSpace=wrap;" parent="1" vertex="1">
          <mxGeometry x="292.09000000000003" y="-740" width="110" height="30" as="geometry" />
        </mxCell>
        <mxCell id="o4eWTq-BV1PpkTGMYe8c-38" value="" style="html=1;verticalAlign=bottom;endArrow=block;edgeStyle=elbowEdgeStyle;elbow=vertical;curved=0;rounded=0;entryX=0.5;entryY=0;entryDx=0;entryDy=0;" parent="1" target="o4eWTq-BV1PpkTGMYe8c-36" edge="1">
          <mxGeometry x="-0.0024" width="80" relative="1" as="geometry">
            <mxPoint x="347" y="-810" as="sourcePoint" />
            <mxPoint x="121" y="-830" as="targetPoint" />
            <mxPoint as="offset" />
          </mxGeometry>
        </mxCell>
        <mxCell id="o4eWTq-BV1PpkTGMYe8c-40" value="" style="html=1;verticalAlign=bottom;endArrow=block;edgeStyle=elbowEdgeStyle;elbow=vertical;curved=0;rounded=0;" parent="1" target="o4eWTq-BV1PpkTGMYe8c-37" edge="1">
          <mxGeometry x="-0.0024" width="80" relative="1" as="geometry">
            <mxPoint x="347" y="-760" as="sourcePoint" />
            <mxPoint x="357" y="-780" as="targetPoint" />
            <mxPoint as="offset" />
          </mxGeometry>
        </mxCell>
        <mxCell id="o4eWTq-BV1PpkTGMYe8c-41" value="" style="endArrow=classic;html=1;rounded=0;entryX=1;entryY=0.5;entryDx=0;entryDy=0;exitX=0;exitY=0.5;exitDx=0;exitDy=0;" parent="1" source="o4eWTq-BV1PpkTGMYe8c-46" target="o4eWTq-BV1PpkTGMYe8c-32" edge="1">
          <mxGeometry width="50" height="50" relative="1" as="geometry">
            <mxPoint x="80" y="-650" as="sourcePoint" />
            <mxPoint x="70" y="-815" as="targetPoint" />
            <Array as="points">
              <mxPoint x="240" y="-671" />
              <mxPoint x="240" y="-829" />
            </Array>
          </mxGeometry>
        </mxCell>
        <mxCell id="o4eWTq-BV1PpkTGMYe8c-42" value="" style="line;strokeWidth=1;fillColor=none;align=left;verticalAlign=middle;spacingTop=-1;spacingLeft=3;spacingRight=3;rotatable=0;labelPosition=right;points=[];portConstraint=eastwest;strokeColor=inherit;" parent="1" vertex="1">
          <mxGeometry x="-40" y="-390" width="950" height="8" as="geometry" />
        </mxCell>
        <mxCell id="o4eWTq-BV1PpkTGMYe8c-43" value="" style="html=1;verticalAlign=bottom;endArrow=block;edgeStyle=elbowEdgeStyle;elbow=vertical;curved=0;rounded=0;exitX=0.5;exitY=1;exitDx=0;exitDy=0;entryX=0.445;entryY=0.985;entryDx=0;entryDy=0;entryPerimeter=0;" parent="1" source="o4eWTq-BV1PpkTGMYe8c-23" target="o4eWTq-BV1PpkTGMYe8c-42" edge="1">
          <mxGeometry x="-0.0024" width="80" relative="1" as="geometry">
            <mxPoint x="125" y="-690" as="sourcePoint" />
            <mxPoint x="125" y="-670" as="targetPoint" />
            <mxPoint as="offset" />
          </mxGeometry>
        </mxCell>
        <mxCell id="o4eWTq-BV1PpkTGMYe8c-44" value="" style="html=1;verticalAlign=bottom;endArrow=block;edgeStyle=elbowEdgeStyle;elbow=vertical;curved=0;rounded=0;" parent="1" edge="1">
          <mxGeometry x="-0.0024" width="80" relative="1" as="geometry">
            <mxPoint x="349" y="-710" as="sourcePoint" />
            <mxPoint x="349" y="-386" as="targetPoint" />
            <mxPoint as="offset" />
            <Array as="points">
              <mxPoint x="349" y="-550" />
            </Array>
          </mxGeometry>
        </mxCell>
        <mxCell id="o4eWTq-BV1PpkTGMYe8c-45" value="" style="group" parent="1" vertex="1" connectable="0">
          <mxGeometry x="310" y="-690" width="90" height="37.5" as="geometry" />
        </mxCell>
        <mxCell id="o4eWTq-BV1PpkTGMYe8c-46" value="send report" style="rounded=0;whiteSpace=wrap;html=1;" parent="o4eWTq-BV1PpkTGMYe8c-45" vertex="1">
          <mxGeometry width="73.63636363636364" height="37.5" as="geometry" />
        </mxCell>
        <mxCell id="o4eWTq-BV1PpkTGMYe8c-47" value="" style="triangle;whiteSpace=wrap;html=1;" parent="o4eWTq-BV1PpkTGMYe8c-45" vertex="1">
          <mxGeometry x="73.63636363636364" width="16.363636363636367" height="37.5" as="geometry" />
        </mxCell>
        <mxCell id="o4eWTq-BV1PpkTGMYe8c-48" value="" style="line;strokeWidth=4;direction=south;html=1;perimeter=backbonePerimeter;points=[];outlineConnect=0;strokeColor=#ffffff;" parent="o4eWTq-BV1PpkTGMYe8c-45" vertex="1">
          <mxGeometry x="69.54545454545456" y="1.25" width="8.181818181818183" height="36.25" as="geometry" />
        </mxCell>
        <mxCell id="o4eWTq-BV1PpkTGMYe8c-50" value="" style="group" parent="1" vertex="1" connectable="0">
          <mxGeometry x="499.99545454545455" y="-850" width="114.18454545454546" height="37.5" as="geometry" />
        </mxCell>
        <mxCell id="o4eWTq-BV1PpkTGMYe8c-51" value="" style="group" parent="o4eWTq-BV1PpkTGMYe8c-50" vertex="1" connectable="0">
          <mxGeometry x="4.184545454545457" width="110" height="37.5" as="geometry" />
        </mxCell>
        <mxCell id="o4eWTq-BV1PpkTGMYe8c-52" value="receive report" style="rounded=0;whiteSpace=wrap;html=1;" parent="o4eWTq-BV1PpkTGMYe8c-51" vertex="1">
          <mxGeometry width="110" height="37.5" as="geometry" />
        </mxCell>
        <mxCell id="o4eWTq-BV1PpkTGMYe8c-53" value="" style="triangle;whiteSpace=wrap;html=1;" parent="o4eWTq-BV1PpkTGMYe8c-51" vertex="1">
          <mxGeometry x="-0.003636363636360329" width="16.363636363636367" height="37.5" as="geometry" />
        </mxCell>
        <mxCell id="o4eWTq-BV1PpkTGMYe8c-54" value="" style="line;strokeWidth=4;direction=south;html=1;perimeter=backbonePerimeter;points=[];outlineConnect=0;strokeColor=#ffffff;" parent="o4eWTq-BV1PpkTGMYe8c-50" vertex="1">
          <mxGeometry y="1.25" width="8.181818181818183" height="36.25" as="geometry" />
        </mxCell>
        <mxCell id="o4eWTq-BV1PpkTGMYe8c-55" value="add report id" style="html=1;whiteSpace=wrap;" parent="1" vertex="1">
          <mxGeometry x="510" y="-790" width="110" height="30" as="geometry" />
        </mxCell>
        <mxCell id="o4eWTq-BV1PpkTGMYe8c-56" value="save report" style="html=1;whiteSpace=wrap;" parent="1" vertex="1">
          <mxGeometry x="510" y="-740" width="110" height="30" as="geometry" />
        </mxCell>
        <mxCell id="o4eWTq-BV1PpkTGMYe8c-58" value="" style="html=1;verticalAlign=bottom;endArrow=block;edgeStyle=elbowEdgeStyle;elbow=vertical;curved=0;rounded=0;entryX=0.5;entryY=0;entryDx=0;entryDy=0;" parent="1" target="o4eWTq-BV1PpkTGMYe8c-55" edge="1">
          <mxGeometry x="-0.0024" width="80" relative="1" as="geometry">
            <mxPoint x="565" y="-820" as="sourcePoint" />
            <mxPoint x="125" y="-780" as="targetPoint" />
            <mxPoint as="offset" />
          </mxGeometry>
        </mxCell>
        <mxCell id="o4eWTq-BV1PpkTGMYe8c-59" value="" style="html=1;verticalAlign=bottom;endArrow=block;edgeStyle=elbowEdgeStyle;elbow=vertical;curved=0;rounded=0;entryX=0.5;entryY=0;entryDx=0;entryDy=0;exitX=0.5;exitY=1;exitDx=0;exitDy=0;" parent="1" source="o4eWTq-BV1PpkTGMYe8c-55" target="o4eWTq-BV1PpkTGMYe8c-56" edge="1">
          <mxGeometry x="-0.0024" width="80" relative="1" as="geometry">
            <mxPoint x="575" y="-810" as="sourcePoint" />
            <mxPoint x="575" y="-780" as="targetPoint" />
            <mxPoint as="offset" />
          </mxGeometry>
        </mxCell>
        <mxCell id="o4eWTq-BV1PpkTGMYe8c-60" value="" style="html=1;verticalAlign=bottom;endArrow=block;edgeStyle=elbowEdgeStyle;elbow=vertical;curved=0;rounded=0;exitX=0.5;exitY=1;exitDx=0;exitDy=0;" parent="1" source="o4eWTq-BV1PpkTGMYe8c-56" edge="1">
          <mxGeometry x="-0.0024" width="80" relative="1" as="geometry">
            <mxPoint x="575" y="-750" as="sourcePoint" />
            <mxPoint x="565" y="-390" as="targetPoint" />
            <mxPoint as="offset" />
          </mxGeometry>
        </mxCell>
        <mxCell id="o4eWTq-BV1PpkTGMYe8c-61" value="" style="endArrow=classic;html=1;rounded=0;entryX=1;entryY=0.5;entryDx=0;entryDy=0;exitX=0;exitY=0.75;exitDx=0;exitDy=0;" parent="1" source="o4eWTq-BV1PpkTGMYe8c-56" target="o4eWTq-BV1PpkTGMYe8c-53" edge="1">
          <mxGeometry width="50" height="50" relative="1" as="geometry">
            <mxPoint x="320" y="-661" as="sourcePoint" />
            <mxPoint x="321" y="-819" as="targetPoint" />
            <Array as="points">
              <mxPoint x="440" y="-718" />
              <mxPoint x="440" y="-831" />
            </Array>
          </mxGeometry>
        </mxCell>
        <mxCell id="o4eWTq-BV1PpkTGMYe8c-76" value="" style="ellipse;html=1;shape=startState;fillColor=#000000;strokeColor=#ff0000;" parent="1" vertex="1">
          <mxGeometry x="10" y="-1260" width="30" height="30" as="geometry" />
        </mxCell>
        <mxCell id="o4eWTq-BV1PpkTGMYe8c-78" value="" style="ellipse;html=1;shape=endState;fillColor=#000000;strokeColor=#ff0000;" parent="1" vertex="1">
          <mxGeometry x="20" y="-350" width="30" height="30" as="geometry" />
        </mxCell>
        <mxCell id="o4eWTq-BV1PpkTGMYe8c-79" value="" style="html=1;verticalAlign=bottom;endArrow=block;edgeStyle=elbowEdgeStyle;elbow=vertical;curved=0;rounded=0;entryX=0.5;entryY=0;entryDx=0;entryDy=0;" parent="1" target="o4eWTq-BV1PpkTGMYe8c-78" edge="1">
          <mxGeometry x="-0.0024" width="80" relative="1" as="geometry">
            <mxPoint x="35" y="-386" as="sourcePoint" />
            <mxPoint x="-153" y="-829" as="targetPoint" />
            <mxPoint as="offset" />
          </mxGeometry>
        </mxCell>
        <mxCell id="ijbx-1r0AyTPYO9ze0CY-5" value="" style="group" vertex="1" connectable="0" parent="1">
          <mxGeometry x="280" y="-1200" width="145" height="60" as="geometry" />
        </mxCell>
        <mxCell id="ijbx-1r0AyTPYO9ze0CY-1" value="" style="rounded=0;whiteSpace=wrap;html=1;" vertex="1" parent="ijbx-1r0AyTPYO9ze0CY-5">
          <mxGeometry width="120" height="60" as="geometry" />
        </mxCell>
        <mxCell id="ijbx-1r0AyTPYO9ze0CY-2" value="" style="endArrow=none;html=1;rounded=0;entryX=1;entryY=0;entryDx=0;entryDy=0;" edge="1" parent="ijbx-1r0AyTPYO9ze0CY-5" target="ijbx-1r0AyTPYO9ze0CY-1">
          <mxGeometry width="50" height="50" relative="1" as="geometry">
            <mxPoint x="145" y="30" as="sourcePoint" />
            <mxPoint x="65" y="-20" as="targetPoint" />
          </mxGeometry>
        </mxCell>
        <mxCell id="ijbx-1r0AyTPYO9ze0CY-3" value="" style="endArrow=none;html=1;rounded=0;entryX=1;entryY=1;entryDx=0;entryDy=0;" edge="1" parent="ijbx-1r0AyTPYO9ze0CY-5" target="ijbx-1r0AyTPYO9ze0CY-1">
          <mxGeometry width="50" height="50" relative="1" as="geometry">
            <mxPoint x="145" y="30" as="sourcePoint" />
            <mxPoint x="128" y="10" as="targetPoint" />
          </mxGeometry>
        </mxCell>
        <mxCell id="ijbx-1r0AyTPYO9ze0CY-4" value="" style="endArrow=none;html=1;rounded=0;entryX=1;entryY=0;entryDx=0;entryDy=0;strokeColor=#ffffff;exitX=1;exitY=0.935;exitDx=0;exitDy=0;exitPerimeter=0;strokeWidth=2;" edge="1" parent="ijbx-1r0AyTPYO9ze0CY-5">
          <mxGeometry width="50" height="50" relative="1" as="geometry">
            <mxPoint x="120" y="58.10000000000002" as="sourcePoint" />
            <mxPoint x="120" y="1" as="targetPoint" />
          </mxGeometry>
        </mxCell>
        <mxCell id="ijbx-1r0AyTPYO9ze0CY-6" value="" style="group" vertex="1" connectable="0" parent="1">
          <mxGeometry x="170" y="-611.5" width="130" height="81" as="geometry" />
        </mxCell>
        <mxCell id="ijbx-1r0AyTPYO9ze0CY-7" value="" style="group" vertex="1" connectable="0" parent="ijbx-1r0AyTPYO9ze0CY-6">
          <mxGeometry x="4.76413779925639" width="125.23586220074361" height="81" as="geometry" />
        </mxCell>
        <mxCell id="ijbx-1r0AyTPYO9ze0CY-8" value="&amp;nbsp; &amp;nbsp;receive detect" style="rounded=0;whiteSpace=wrap;html=1;" vertex="1" parent="ijbx-1r0AyTPYO9ze0CY-7">
          <mxGeometry width="125.23586220074361" height="60" as="geometry" />
        </mxCell>
        <mxCell id="ijbx-1r0AyTPYO9ze0CY-14" value="" style="triangle;whiteSpace=wrap;html=1;" vertex="1" parent="ijbx-1r0AyTPYO9ze0CY-7">
          <mxGeometry x="0.2400000000000002" y="1" width="20" height="59" as="geometry" />
        </mxCell>
        <mxCell id="ijbx-1r0AyTPYO9ze0CY-15" value="" style="line;strokeWidth=2;direction=south;html=1;perimeter=backbonePerimeter;points=[];outlineConnect=0;strokeColor=#ffffff;" vertex="1" parent="ijbx-1r0AyTPYO9ze0CY-6">
          <mxGeometry x="0.0041377992563980115" y="1.5" width="9.32" height="58" as="geometry" />
        </mxCell>
        <mxCell id="ijbx-1r0AyTPYO9ze0CY-90" value="is plant registerd?" style="text;strokeColor=none;fillColor=none;align=left;verticalAlign=middle;spacingLeft=4;spacingRight=4;overflow=hidden;points=[[0,0.5],[1,0.5]];portConstraint=eastwest;rotatable=0;whiteSpace=wrap;html=1;" vertex="1" parent="1">
          <mxGeometry x="40" y="-1140" width="145" height="30" as="geometry" />
        </mxCell>
        <mxCell id="ijbx-1r0AyTPYO9ze0CY-91" value="initialize" style="html=1;whiteSpace=wrap;" vertex="1" parent="1">
          <mxGeometry x="-30" y="-1200" width="110" height="30" as="geometry" />
        </mxCell>
        <mxCell id="ijbx-1r0AyTPYO9ze0CY-104" value="" style="rhombus;whiteSpace=wrap;html=1;" vertex="1" parent="1">
          <mxGeometry x="15" y="-1140" width="20" height="30" as="geometry" />
        </mxCell>
        <mxCell id="ijbx-1r0AyTPYO9ze0CY-109" value="" style="html=1;verticalAlign=bottom;endArrow=block;edgeStyle=elbowEdgeStyle;elbow=vertical;curved=0;rounded=0;exitX=0.5;exitY=1;exitDx=0;exitDy=0;entryX=0.5;entryY=0;entryDx=0;entryDy=0;" edge="1" parent="1" source="ijbx-1r0AyTPYO9ze0CY-91" target="ijbx-1r0AyTPYO9ze0CY-104">
          <mxGeometry x="-0.0024" width="80" relative="1" as="geometry">
            <mxPoint x="-153" y="-856" as="sourcePoint" />
            <mxPoint x="-60" y="-990" as="targetPoint" />
            <mxPoint as="offset" />
          </mxGeometry>
        </mxCell>
        <mxCell id="ijbx-1r0AyTPYO9ze0CY-110" value="" style="html=1;verticalAlign=bottom;endArrow=block;edgeStyle=elbowEdgeStyle;elbow=vertical;curved=0;rounded=0;exitX=0.5;exitY=1;exitDx=0;exitDy=0;entryX=0.5;entryY=0;entryDx=0;entryDy=0;" edge="1" parent="1" source="o4eWTq-BV1PpkTGMYe8c-76" target="ijbx-1r0AyTPYO9ze0CY-91">
          <mxGeometry x="-0.0024" width="80" relative="1" as="geometry">
            <mxPoint x="35" y="-1160" as="sourcePoint" />
            <mxPoint x="35" y="-1130" as="targetPoint" />
            <mxPoint as="offset" />
          </mxGeometry>
        </mxCell>
        <mxCell id="ijbx-1r0AyTPYO9ze0CY-111" value="receive manufacturing plant register form" style="html=1;whiteSpace=wrap;" vertex="1" parent="1">
          <mxGeometry x="-190" y="-1145" width="160" height="40" as="geometry" />
        </mxCell>
        <mxCell id="ijbx-1r0AyTPYO9ze0CY-112" value="" style="html=1;verticalAlign=bottom;endArrow=block;edgeStyle=elbowEdgeStyle;elbow=vertical;curved=0;rounded=0;exitX=0;exitY=0.5;exitDx=0;exitDy=0;entryX=1;entryY=0.5;entryDx=0;entryDy=0;" edge="1" parent="1" source="ijbx-1r0AyTPYO9ze0CY-104" target="ijbx-1r0AyTPYO9ze0CY-111">
          <mxGeometry x="-0.0024" width="80" relative="1" as="geometry">
            <mxPoint x="35" y="-1160" as="sourcePoint" />
            <mxPoint x="35" y="-1130" as="targetPoint" />
            <mxPoint as="offset" />
          </mxGeometry>
        </mxCell>
        <mxCell id="ijbx-1r0AyTPYO9ze0CY-113" value="" style="rhombus;whiteSpace=wrap;html=1;" vertex="1" parent="1">
          <mxGeometry x="-120" y="-1080" width="20" height="30" as="geometry" />
        </mxCell>
        <mxCell id="ijbx-1r0AyTPYO9ze0CY-114" value="" style="html=1;verticalAlign=bottom;endArrow=block;edgeStyle=elbowEdgeStyle;elbow=vertical;curved=0;rounded=0;exitX=0.5;exitY=1;exitDx=0;exitDy=0;entryX=0.5;entryY=0;entryDx=0;entryDy=0;" edge="1" parent="1" source="ijbx-1r0AyTPYO9ze0CY-111" target="ijbx-1r0AyTPYO9ze0CY-113">
          <mxGeometry x="-0.0024" width="80" relative="1" as="geometry">
            <mxPoint x="25" y="-1115" as="sourcePoint" />
            <mxPoint x="-20" y="-1115" as="targetPoint" />
            <mxPoint as="offset" />
          </mxGeometry>
        </mxCell>
        <mxCell id="ijbx-1r0AyTPYO9ze0CY-115" value="" style="html=1;verticalAlign=bottom;endArrow=block;edgeStyle=elbowEdgeStyle;elbow=vertical;curved=0;rounded=0;exitX=0;exitY=0.5;exitDx=0;exitDy=0;entryX=0;entryY=0.25;entryDx=0;entryDy=0;" edge="1" parent="1" source="ijbx-1r0AyTPYO9ze0CY-113" target="ijbx-1r0AyTPYO9ze0CY-111">
          <mxGeometry x="-0.0024" width="80" relative="1" as="geometry">
            <mxPoint x="-100" y="-1095" as="sourcePoint" />
            <mxPoint x="-100" y="-1070" as="targetPoint" />
            <mxPoint as="offset" />
            <Array as="points">
              <mxPoint x="-230" y="-1070" />
              <mxPoint x="-160" y="-1070" />
            </Array>
          </mxGeometry>
        </mxCell>
        <mxCell id="ijbx-1r0AyTPYO9ze0CY-116" value="is okay" style="text;html=1;strokeColor=none;fillColor=none;align=center;verticalAlign=middle;whiteSpace=wrap;rounded=0;" vertex="1" parent="1">
          <mxGeometry x="-109" y="-1090" width="60" height="30" as="geometry" />
        </mxCell>
        <mxCell id="ijbx-1r0AyTPYO9ze0CY-117" value="N" style="text;html=1;strokeColor=none;fillColor=none;align=center;verticalAlign=middle;whiteSpace=wrap;rounded=0;" vertex="1" parent="1">
          <mxGeometry x="-160" y="-1090" width="60" height="30" as="geometry" />
        </mxCell>
        <mxCell id="ijbx-1r0AyTPYO9ze0CY-118" value="Y" style="text;html=1;strokeColor=none;fillColor=none;align=center;verticalAlign=middle;whiteSpace=wrap;rounded=0;" vertex="1" parent="1">
          <mxGeometry x="-160" y="-1070" width="60" height="30" as="geometry" />
        </mxCell>
        <mxCell id="ijbx-1r0AyTPYO9ze0CY-119" value="register manufacturing plant" style="html=1;whiteSpace=wrap;" vertex="1" parent="1">
          <mxGeometry x="-190" y="-1030" width="160" height="40" as="geometry" />
        </mxCell>
        <mxCell id="ijbx-1r0AyTPYO9ze0CY-120" value="" style="html=1;verticalAlign=bottom;endArrow=block;edgeStyle=elbowEdgeStyle;elbow=vertical;curved=0;rounded=0;entryX=0.5;entryY=0;entryDx=0;entryDy=0;" edge="1" parent="1" target="ijbx-1r0AyTPYO9ze0CY-119">
          <mxGeometry x="-0.0024" width="80" relative="1" as="geometry">
            <mxPoint x="-110" y="-1050" as="sourcePoint" />
            <mxPoint x="-100" y="-1070" as="targetPoint" />
            <mxPoint as="offset" />
          </mxGeometry>
        </mxCell>
        <mxCell id="ijbx-1r0AyTPYO9ze0CY-121" value="N" style="text;html=1;strokeColor=none;fillColor=none;align=center;verticalAlign=middle;whiteSpace=wrap;rounded=0;" vertex="1" parent="1">
          <mxGeometry x="-15" y="-1145" width="35" height="25" as="geometry" />
        </mxCell>
        <mxCell id="ijbx-1r0AyTPYO9ze0CY-123" value="" style="html=1;verticalAlign=bottom;endArrow=block;edgeStyle=elbowEdgeStyle;elbow=vertical;curved=0;rounded=0;entryX=0.686;entryY=0.564;entryDx=0;entryDy=0;exitX=0.5;exitY=1;exitDx=0;exitDy=0;entryPerimeter=0;" edge="1" parent="1" source="ijbx-1r0AyTPYO9ze0CY-104" target="o4eWTq-BV1PpkTGMYe8c-1">
          <mxGeometry x="-0.0024" width="80" relative="1" as="geometry">
            <mxPoint x="-100" y="-1040" as="sourcePoint" />
            <mxPoint x="-100" y="-1020" as="targetPoint" />
            <mxPoint as="offset" />
          </mxGeometry>
        </mxCell>
        <mxCell id="ijbx-1r0AyTPYO9ze0CY-162" value="display login menu" style="html=1;whiteSpace=wrap;" vertex="1" parent="1">
          <mxGeometry x="-1250" y="-840" width="190" height="30" as="geometry" />
        </mxCell>
        <mxCell id="ijbx-1r0AyTPYO9ze0CY-163" value="" style="html=1;verticalAlign=bottom;endArrow=block;edgeStyle=elbowEdgeStyle;elbow=vertical;curved=0;rounded=0;exitX=0.195;exitY=0.512;exitDx=0;exitDy=0;exitPerimeter=0;entryX=0.5;entryY=0;entryDx=0;entryDy=0;" edge="1" parent="1" target="ijbx-1r0AyTPYO9ze0CY-162">
          <mxGeometry x="-0.0024" width="80" relative="1" as="geometry">
            <mxPoint x="-1154.2500000000005" y="-865.904" as="sourcePoint" />
            <mxPoint x="-196" y="-830" as="targetPoint" />
            <mxPoint as="offset" />
            <Array as="points">
              <mxPoint x="-1150" y="-840" />
              <mxPoint x="-1150" y="-850" />
            </Array>
          </mxGeometry>
        </mxCell>
        <mxCell id="ijbx-1r0AyTPYO9ze0CY-164" value="" style="html=1;verticalAlign=bottom;endArrow=block;edgeStyle=elbowEdgeStyle;elbow=vertical;curved=0;rounded=0;exitX=0.5;exitY=1;exitDx=0;exitDy=0;entryX=0.5;entryY=0;entryDx=0;entryDy=0;" edge="1" parent="1" source="ijbx-1r0AyTPYO9ze0CY-162" target="ijbx-1r0AyTPYO9ze0CY-169">
          <mxGeometry x="-0.0024" width="80" relative="1" as="geometry">
            <mxPoint x="-1144" y="-856" as="sourcePoint" />
            <mxPoint x="-1155" y="-790" as="targetPoint" />
            <mxPoint as="offset" />
            <Array as="points" />
          </mxGeometry>
        </mxCell>
        <mxCell id="ijbx-1r0AyTPYO9ze0CY-165" value="login" style="html=1;whiteSpace=wrap;" vertex="1" parent="1">
          <mxGeometry x="-1190" y="-630.5" width="70" height="30" as="geometry" />
        </mxCell>
        <mxCell id="ijbx-1r0AyTPYO9ze0CY-166" value="" style="html=1;verticalAlign=bottom;endArrow=block;edgeStyle=elbowEdgeStyle;elbow=vertical;curved=0;rounded=0;entryX=0.5;entryY=0;entryDx=0;entryDy=0;exitX=0.5;exitY=1;exitDx=0;exitDy=0;" edge="1" parent="1" source="ijbx-1r0AyTPYO9ze0CY-169" target="ijbx-1r0AyTPYO9ze0CY-165">
          <mxGeometry x="-0.0024" width="80" relative="1" as="geometry">
            <mxPoint x="-1155" y="-740" as="sourcePoint" />
            <mxPoint x="-1145" y="-780" as="targetPoint" />
            <mxPoint as="offset" />
            <Array as="points" />
          </mxGeometry>
        </mxCell>
        <mxCell id="ijbx-1r0AyTPYO9ze0CY-167" value="is register?" style="text;html=1;strokeColor=none;fillColor=none;align=center;verticalAlign=middle;whiteSpace=wrap;rounded=0;" vertex="1" parent="1">
          <mxGeometry x="-1240" y="-780" width="65" height="30" as="geometry" />
        </mxCell>
        <mxCell id="ijbx-1r0AyTPYO9ze0CY-168" value="" style="html=1;verticalAlign=bottom;endArrow=block;edgeStyle=elbowEdgeStyle;elbow=vertical;curved=0;rounded=0;entryX=0.5;entryY=0;entryDx=0;entryDy=0;" edge="1" parent="1" target="ijbx-1r0AyTPYO9ze0CY-174">
          <mxGeometry x="-0.0024" width="80" relative="1" as="geometry">
            <mxPoint x="-1150" y="-764" as="sourcePoint" />
            <mxPoint x="-1030" y="-765" as="targetPoint" />
            <mxPoint as="offset" />
            <Array as="points">
              <mxPoint x="-1080" y="-764" />
            </Array>
          </mxGeometry>
        </mxCell>
        <mxCell id="ijbx-1r0AyTPYO9ze0CY-169" value="" style="rhombus;whiteSpace=wrap;html=1;" vertex="1" parent="1">
          <mxGeometry x="-1165" y="-780" width="20" height="30" as="geometry" />
        </mxCell>
        <mxCell id="ijbx-1r0AyTPYO9ze0CY-174" value="display manager register form" style="html=1;whiteSpace=wrap;" vertex="1" parent="1">
          <mxGeometry x="-1085" y="-731.5" width="130" height="30" as="geometry" />
        </mxCell>
        <mxCell id="ijbx-1r0AyTPYO9ze0CY-175" value="register manager profile" style="html=1;whiteSpace=wrap;" vertex="1" parent="1">
          <mxGeometry x="-1085" y="-631" width="130" height="30" as="geometry" />
        </mxCell>
        <mxCell id="ijbx-1r0AyTPYO9ze0CY-176" value="" style="rhombus;whiteSpace=wrap;html=1;" vertex="1" parent="1">
          <mxGeometry x="-1030" y="-681" width="20" height="30" as="geometry" />
        </mxCell>
        <mxCell id="ijbx-1r0AyTPYO9ze0CY-177" value="is filled?" style="text;html=1;strokeColor=none;fillColor=none;align=center;verticalAlign=middle;whiteSpace=wrap;rounded=0;" vertex="1" parent="1">
          <mxGeometry x="-1085" y="-691" width="65" height="20" as="geometry" />
        </mxCell>
        <mxCell id="ijbx-1r0AyTPYO9ze0CY-178" value="" style="html=1;verticalAlign=bottom;endArrow=block;edgeStyle=elbowEdgeStyle;elbow=vertical;curved=0;rounded=0;exitX=0.5;exitY=1;exitDx=0;exitDy=0;entryX=0.5;entryY=0;entryDx=0;entryDy=0;" edge="1" parent="1" source="ijbx-1r0AyTPYO9ze0CY-174" target="ijbx-1r0AyTPYO9ze0CY-176">
          <mxGeometry x="-0.0024" width="80" relative="1" as="geometry">
            <mxPoint x="-1145" y="-971" as="sourcePoint" />
            <mxPoint x="-1021" y="-681" as="targetPoint" />
            <mxPoint as="offset" />
            <Array as="points" />
          </mxGeometry>
        </mxCell>
        <mxCell id="ijbx-1r0AyTPYO9ze0CY-179" value="" style="html=1;verticalAlign=bottom;endArrow=block;edgeStyle=elbowEdgeStyle;elbow=vertical;curved=0;rounded=0;exitX=0.487;exitY=0.949;exitDx=0;exitDy=0;entryX=0.5;entryY=0;entryDx=0;entryDy=0;exitPerimeter=0;" edge="1" parent="1" source="ijbx-1r0AyTPYO9ze0CY-176" target="ijbx-1r0AyTPYO9ze0CY-175">
          <mxGeometry x="-0.0024" width="80" relative="1" as="geometry">
            <mxPoint x="-1010" y="-691" as="sourcePoint" />
            <mxPoint x="-1010" y="-671" as="targetPoint" />
            <mxPoint as="offset" />
            <Array as="points" />
          </mxGeometry>
        </mxCell>
        <mxCell id="ijbx-1r0AyTPYO9ze0CY-180" value="" style="html=1;verticalAlign=bottom;endArrow=block;edgeStyle=elbowEdgeStyle;elbow=vertical;curved=0;rounded=0;exitX=0;exitY=0.5;exitDx=0;exitDy=0;entryX=0;entryY=0.5;entryDx=0;entryDy=0;" edge="1" parent="1" source="ijbx-1r0AyTPYO9ze0CY-176" target="ijbx-1r0AyTPYO9ze0CY-174">
          <mxGeometry x="-0.0024" width="80" relative="1" as="geometry">
            <mxPoint x="-1010" y="-643" as="sourcePoint" />
            <mxPoint x="-1010" y="-621" as="targetPoint" />
            <mxPoint as="offset" />
            <Array as="points">
              <mxPoint x="-1100" y="-691" />
              <mxPoint x="-1060" y="-661" />
            </Array>
          </mxGeometry>
        </mxCell>
        <mxCell id="ijbx-1r0AyTPYO9ze0CY-189" value="manager" style="text;html=1;strokeColor=none;fillColor=none;align=center;verticalAlign=middle;whiteSpace=wrap;rounded=0;" vertex="1" parent="1">
          <mxGeometry x="-946" y="-740" width="40" height="20" as="geometry" />
        </mxCell>
        <mxCell id="ijbx-1r0AyTPYO9ze0CY-192" value="" style="html=1;verticalAlign=bottom;endArrow=block;edgeStyle=elbowEdgeStyle;elbow=vertical;curved=0;rounded=0;exitX=0;exitY=0.5;exitDx=0;exitDy=0;" edge="1" parent="1" source="ijbx-1r0AyTPYO9ze0CY-175">
          <mxGeometry x="-0.0024" width="80" relative="1" as="geometry">
            <mxPoint x="-1145" y="-740" as="sourcePoint" />
            <mxPoint x="-1120" y="-616" as="targetPoint" />
            <mxPoint as="offset" />
            <Array as="points" />
          </mxGeometry>
        </mxCell>
        <mxCell id="ijbx-1r0AyTPYO9ze0CY-193" value="" style="rhombus;whiteSpace=wrap;html=1;" vertex="1" parent="1">
          <mxGeometry x="-1165" y="-569" width="20" height="30" as="geometry" />
        </mxCell>
        <mxCell id="ijbx-1r0AyTPYO9ze0CY-194" value="" style="html=1;verticalAlign=bottom;endArrow=block;edgeStyle=elbowEdgeStyle;elbow=vertical;curved=0;rounded=0;entryX=0.5;entryY=0;entryDx=0;entryDy=0;" edge="1" parent="1" target="ijbx-1r0AyTPYO9ze0CY-193">
          <mxGeometry x="-0.0024" width="80" relative="1" as="geometry">
            <mxPoint x="-1155" y="-600" as="sourcePoint" />
            <mxPoint x="-1145" y="-770" as="targetPoint" />
            <mxPoint as="offset" />
            <Array as="points" />
          </mxGeometry>
        </mxCell>
        <mxCell id="ijbx-1r0AyTPYO9ze0CY-196" value="manager or worker?" style="text;html=1;strokeColor=none;fillColor=none;align=center;verticalAlign=middle;whiteSpace=wrap;rounded=0;" vertex="1" parent="1">
          <mxGeometry x="-1275" y="-586" width="110" height="30" as="geometry" />
        </mxCell>
        <mxCell id="ijbx-1r0AyTPYO9ze0CY-198" value="display manager menu" style="html=1;whiteSpace=wrap;" vertex="1" parent="1">
          <mxGeometry x="-1115" y="-520" width="130" height="30" as="geometry" />
        </mxCell>
        <mxCell id="ijbx-1r0AyTPYO9ze0CY-199" value="" style="html=1;verticalAlign=bottom;endArrow=block;edgeStyle=elbowEdgeStyle;elbow=vertical;curved=0;rounded=0;exitX=0;exitY=0.5;exitDx=0;exitDy=0;entryX=0.5;entryY=0;entryDx=0;entryDy=0;" edge="1" parent="1" source="ijbx-1r0AyTPYO9ze0CY-193" target="ijbx-1r0AyTPYO9ze0CY-197">
          <mxGeometry x="-0.0024" width="80" relative="1" as="geometry">
            <mxPoint x="-1145" y="-590" as="sourcePoint" />
            <mxPoint x="-1145" y="-559" as="targetPoint" />
            <mxPoint as="offset" />
            <Array as="points">
              <mxPoint x="-1210" y="-554" />
            </Array>
          </mxGeometry>
        </mxCell>
        <mxCell id="ijbx-1r0AyTPYO9ze0CY-200" value="" style="html=1;verticalAlign=bottom;endArrow=block;edgeStyle=elbowEdgeStyle;elbow=vertical;curved=0;rounded=0;exitX=1;exitY=0.5;exitDx=0;exitDy=0;entryX=0.5;entryY=0;entryDx=0;entryDy=0;" edge="1" parent="1" source="ijbx-1r0AyTPYO9ze0CY-193" target="ijbx-1r0AyTPYO9ze0CY-198">
          <mxGeometry x="-0.0024" width="80" relative="1" as="geometry">
            <mxPoint x="-1145" y="-529" as="sourcePoint" />
            <mxPoint x="-1245" y="-490" as="targetPoint" />
            <mxPoint as="offset" />
            <Array as="points">
              <mxPoint x="-1100" y="-554" />
            </Array>
          </mxGeometry>
        </mxCell>
        <mxCell id="ijbx-1r0AyTPYO9ze0CY-220" value="" style="rhombus;whiteSpace=wrap;html=1;" vertex="1" parent="1">
          <mxGeometry x="-1060" y="-470" width="20" height="30" as="geometry" />
        </mxCell>
        <mxCell id="ijbx-1r0AyTPYO9ze0CY-221" value="" style="html=1;verticalAlign=bottom;endArrow=block;edgeStyle=elbowEdgeStyle;elbow=vertical;curved=0;rounded=0;entryX=0.5;entryY=0;entryDx=0;entryDy=0;" edge="1" parent="1" target="ijbx-1r0AyTPYO9ze0CY-220">
          <mxGeometry x="-0.0024" width="80" relative="1" as="geometry">
            <mxPoint x="-1050" y="-490" as="sourcePoint" />
            <mxPoint x="-940" y="-579" as="targetPoint" />
            <mxPoint as="offset" />
            <Array as="points" />
          </mxGeometry>
        </mxCell>
        <mxCell id="ijbx-1r0AyTPYO9ze0CY-244" value="view report" style="html=1;whiteSpace=wrap;" vertex="1" parent="1">
          <mxGeometry x="-495" y="-330" width="130" height="30" as="geometry" />
        </mxCell>
        <mxCell id="ijbx-1r0AyTPYO9ze0CY-248" value="" style="html=1;verticalAlign=bottom;endArrow=block;edgeStyle=elbowEdgeStyle;elbow=vertical;curved=0;rounded=0;exitX=0.5;exitY=1;exitDx=0;exitDy=0;entryX=0.5;entryY=0;entryDx=0;entryDy=0;" edge="1" parent="1" source="ijbx-1r0AyTPYO9ze0CY-220" target="ijbx-1r0AyTPYO9ze0CY-239">
          <mxGeometry x="-0.0024" width="80" relative="1" as="geometry">
            <mxPoint x="-1135" y="-544" as="sourcePoint" />
            <mxPoint x="-1040" y="-510" as="targetPoint" />
            <mxPoint as="offset" />
            <Array as="points">
              <mxPoint x="-1230" y="-430" />
            </Array>
          </mxGeometry>
        </mxCell>
        <mxCell id="ijbx-1r0AyTPYO9ze0CY-251" value="select menu" style="text;html=1;strokeColor=none;fillColor=none;align=center;verticalAlign=middle;whiteSpace=wrap;rounded=0;" vertex="1" parent="1">
          <mxGeometry x="-1145" y="-459.5" width="90" height="30" as="geometry" />
        </mxCell>
        <mxCell id="ijbx-1r0AyTPYO9ze0CY-293" value="select menu" style="text;html=1;strokeColor=none;fillColor=none;align=center;verticalAlign=middle;whiteSpace=wrap;rounded=0;" vertex="1" parent="1">
          <mxGeometry x="-860" y="-280.5" width="90" height="20.5" as="geometry" />
        </mxCell>
        <mxCell id="ijbx-1r0AyTPYO9ze0CY-307" value="" style="group" vertex="1" connectable="0" parent="1">
          <mxGeometry x="-495" y="-231.5" width="140" height="30" as="geometry" />
        </mxCell>
        <mxCell id="ijbx-1r0AyTPYO9ze0CY-308" value="generating report" style="rounded=0;whiteSpace=wrap;html=1;" vertex="1" parent="ijbx-1r0AyTPYO9ze0CY-307">
          <mxGeometry width="115.86206896551725" height="30" as="geometry" />
        </mxCell>
        <mxCell id="ijbx-1r0AyTPYO9ze0CY-309" value="" style="endArrow=none;html=1;rounded=0;entryX=1;entryY=0;entryDx=0;entryDy=0;" edge="1" parent="ijbx-1r0AyTPYO9ze0CY-307" target="ijbx-1r0AyTPYO9ze0CY-308">
          <mxGeometry width="50" height="50" relative="1" as="geometry">
            <mxPoint x="140" y="15" as="sourcePoint" />
            <mxPoint x="62.758620689655174" y="-10" as="targetPoint" />
          </mxGeometry>
        </mxCell>
        <mxCell id="ijbx-1r0AyTPYO9ze0CY-310" value="" style="endArrow=none;html=1;rounded=0;entryX=1;entryY=1;entryDx=0;entryDy=0;" edge="1" parent="ijbx-1r0AyTPYO9ze0CY-307" target="ijbx-1r0AyTPYO9ze0CY-308">
          <mxGeometry width="50" height="50" relative="1" as="geometry">
            <mxPoint x="140" y="15" as="sourcePoint" />
            <mxPoint x="123.58620689655173" y="5" as="targetPoint" />
          </mxGeometry>
        </mxCell>
        <mxCell id="ijbx-1r0AyTPYO9ze0CY-311" value="" style="endArrow=none;html=1;rounded=0;entryX=1;entryY=0;entryDx=0;entryDy=0;strokeColor=#ffffff;exitX=1;exitY=0.935;exitDx=0;exitDy=0;exitPerimeter=0;strokeWidth=2;" edge="1" parent="ijbx-1r0AyTPYO9ze0CY-307">
          <mxGeometry width="50" height="50" relative="1" as="geometry">
            <mxPoint x="115.86206896551725" y="29.05000000000001" as="sourcePoint" />
            <mxPoint x="115.86206896551725" y="0.5" as="targetPoint" />
          </mxGeometry>
        </mxCell>
        <mxCell id="ijbx-1r0AyTPYO9ze0CY-312" value="enter period" style="html=1;whiteSpace=wrap;" vertex="1" parent="1">
          <mxGeometry x="-494" y="-281.5" width="130" height="30" as="geometry" />
        </mxCell>
        <mxCell id="ijbx-1r0AyTPYO9ze0CY-313" value="" style="html=1;verticalAlign=bottom;endArrow=block;edgeStyle=elbowEdgeStyle;elbow=vertical;curved=0;rounded=0;entryX=0.5;entryY=0;entryDx=0;entryDy=0;exitX=0.5;exitY=1;exitDx=0;exitDy=0;" edge="1" parent="1" target="ijbx-1r0AyTPYO9ze0CY-312">
          <mxGeometry x="-0.0024" width="80" relative="1" as="geometry">
            <mxPoint x="-429" y="-300.5" as="sourcePoint" />
            <mxPoint x="-419" y="-520.5" as="targetPoint" />
            <mxPoint as="offset" />
            <Array as="points" />
          </mxGeometry>
        </mxCell>
        <mxCell id="ijbx-1r0AyTPYO9ze0CY-314" value="" style="html=1;verticalAlign=bottom;endArrow=block;edgeStyle=elbowEdgeStyle;elbow=vertical;curved=0;rounded=0;entryX=0.573;entryY=0.02;entryDx=0;entryDy=0;exitX=0.5;exitY=1;exitDx=0;exitDy=0;entryPerimeter=0;" edge="1" parent="1" source="ijbx-1r0AyTPYO9ze0CY-312" target="ijbx-1r0AyTPYO9ze0CY-308">
          <mxGeometry x="-0.0024" width="80" relative="1" as="geometry">
            <mxPoint x="-419" y="-290.5" as="sourcePoint" />
            <mxPoint x="-419" y="-271.5" as="targetPoint" />
            <mxPoint as="offset" />
            <Array as="points">
              <mxPoint x="-434" y="-241.5" />
            </Array>
          </mxGeometry>
        </mxCell>
        <mxCell id="ijbx-1r0AyTPYO9ze0CY-316" value="" style="group" vertex="1" connectable="0" parent="1">
          <mxGeometry x="-690" y="-330" width="155" height="284.5" as="geometry" />
        </mxCell>
        <mxCell id="ijbx-1r0AyTPYO9ze0CY-242" value="remedy method crud" style="html=1;whiteSpace=wrap;" vertex="1" parent="ijbx-1r0AyTPYO9ze0CY-316">
          <mxGeometry x="25" width="130" height="30" as="geometry" />
        </mxCell>
        <mxCell id="ijbx-1r0AyTPYO9ze0CY-296" value="retrieve remedy method" style="html=1;whiteSpace=wrap;" vertex="1" parent="ijbx-1r0AyTPYO9ze0CY-316">
          <mxGeometry x="25" y="153.5" width="130" height="30" as="geometry" />
        </mxCell>
        <mxCell id="ijbx-1r0AyTPYO9ze0CY-297" value="modify remedy method" style="html=1;whiteSpace=wrap;" vertex="1" parent="ijbx-1r0AyTPYO9ze0CY-316">
          <mxGeometry x="25" y="204.5" width="130" height="30" as="geometry" />
        </mxCell>
        <mxCell id="ijbx-1r0AyTPYO9ze0CY-298" value="unregister remedy method" style="html=1;whiteSpace=wrap;" vertex="1" parent="ijbx-1r0AyTPYO9ze0CY-316">
          <mxGeometry x="25" y="254.5" width="130" height="30" as="geometry" />
        </mxCell>
        <mxCell id="ijbx-1r0AyTPYO9ze0CY-299" value="" style="rhombus;whiteSpace=wrap;html=1;" vertex="1" parent="ijbx-1r0AyTPYO9ze0CY-316">
          <mxGeometry x="80" y="52.5" width="20" height="30" as="geometry" />
        </mxCell>
        <mxCell id="ijbx-1r0AyTPYO9ze0CY-300" value="" style="html=1;verticalAlign=bottom;endArrow=block;edgeStyle=elbowEdgeStyle;elbow=vertical;curved=0;rounded=0;entryX=0.5;entryY=0;entryDx=0;entryDy=0;exitX=0.5;exitY=1;exitDx=0;exitDy=0;" edge="1" parent="ijbx-1r0AyTPYO9ze0CY-316" target="ijbx-1r0AyTPYO9ze0CY-299">
          <mxGeometry x="-0.0024" width="80" relative="1" as="geometry">
            <mxPoint x="90" y="30" as="sourcePoint" />
            <mxPoint x="465" y="-48" as="targetPoint" />
            <mxPoint as="offset" />
            <Array as="points" />
          </mxGeometry>
        </mxCell>
        <mxCell id="ijbx-1r0AyTPYO9ze0CY-301" value="" style="html=1;verticalAlign=bottom;endArrow=block;edgeStyle=elbowEdgeStyle;elbow=vertical;curved=0;rounded=0;entryX=0;entryY=0.75;entryDx=0;entryDy=0;exitX=0;exitY=0.5;exitDx=0;exitDy=0;" edge="1" parent="ijbx-1r0AyTPYO9ze0CY-316" source="ijbx-1r0AyTPYO9ze0CY-299" target="ijbx-1r0AyTPYO9ze0CY-296">
          <mxGeometry x="-0.0024" width="80" relative="1" as="geometry">
            <mxPoint x="100" y="40" as="sourcePoint" />
            <mxPoint x="100" y="63" as="targetPoint" />
            <mxPoint as="offset" />
            <Array as="points">
              <mxPoint x="5" y="92" />
              <mxPoint x="55" y="68" />
            </Array>
          </mxGeometry>
        </mxCell>
        <mxCell id="ijbx-1r0AyTPYO9ze0CY-302" value="" style="html=1;verticalAlign=bottom;endArrow=block;edgeStyle=elbowEdgeStyle;elbow=vertical;curved=0;rounded=0;entryX=0;entryY=0.5;entryDx=0;entryDy=0;exitX=0;exitY=0.5;exitDx=0;exitDy=0;" edge="1" parent="ijbx-1r0AyTPYO9ze0CY-316" source="ijbx-1r0AyTPYO9ze0CY-299" target="ijbx-1r0AyTPYO9ze0CY-297">
          <mxGeometry x="-0.0024" width="80" relative="1" as="geometry">
            <mxPoint x="90" y="78" as="sourcePoint" />
            <mxPoint x="35" y="135" as="targetPoint" />
            <mxPoint as="offset" />
            <Array as="points">
              <mxPoint x="5" y="120" />
              <mxPoint x="65" y="78" />
            </Array>
          </mxGeometry>
        </mxCell>
        <mxCell id="ijbx-1r0AyTPYO9ze0CY-303" value="" style="html=1;verticalAlign=bottom;endArrow=block;edgeStyle=elbowEdgeStyle;elbow=vertical;curved=0;rounded=0;entryX=0;entryY=0.5;entryDx=0;entryDy=0;exitX=0;exitY=0.5;exitDx=0;exitDy=0;" edge="1" parent="ijbx-1r0AyTPYO9ze0CY-316" source="ijbx-1r0AyTPYO9ze0CY-299" target="ijbx-1r0AyTPYO9ze0CY-298">
          <mxGeometry x="-0.0024" width="80" relative="1" as="geometry">
            <mxPoint x="90" y="78" as="sourcePoint" />
            <mxPoint x="35" y="179" as="targetPoint" />
            <mxPoint as="offset" />
            <Array as="points">
              <mxPoint x="5" y="150" />
              <mxPoint x="55" y="68" />
              <mxPoint x="75" y="88" />
            </Array>
          </mxGeometry>
        </mxCell>
        <mxCell id="ijbx-1r0AyTPYO9ze0CY-304" value="select menu" style="text;html=1;strokeColor=none;fillColor=none;align=center;verticalAlign=middle;whiteSpace=wrap;rounded=0;" vertex="1" parent="ijbx-1r0AyTPYO9ze0CY-316">
          <mxGeometry y="49.5" width="90" height="20.5" as="geometry" />
        </mxCell>
        <mxCell id="ijbx-1r0AyTPYO9ze0CY-305" value="register remedy method" style="html=1;whiteSpace=wrap;" vertex="1" parent="ijbx-1r0AyTPYO9ze0CY-316">
          <mxGeometry x="25" y="102.5" width="130" height="30" as="geometry" />
        </mxCell>
        <mxCell id="ijbx-1r0AyTPYO9ze0CY-306" value="" style="html=1;verticalAlign=bottom;endArrow=block;edgeStyle=elbowEdgeStyle;elbow=vertical;curved=0;rounded=0;entryX=0;entryY=0.5;entryDx=0;entryDy=0;exitX=0;exitY=0.5;exitDx=0;exitDy=0;" edge="1" parent="ijbx-1r0AyTPYO9ze0CY-316" source="ijbx-1r0AyTPYO9ze0CY-299" target="ijbx-1r0AyTPYO9ze0CY-305">
          <mxGeometry x="-0.0024" width="80" relative="1" as="geometry">
            <mxPoint x="90" y="78" as="sourcePoint" />
            <mxPoint x="35" y="186" as="targetPoint" />
            <mxPoint as="offset" />
            <Array as="points">
              <mxPoint x="5" y="90" />
              <mxPoint x="50" y="68" />
              <mxPoint x="65" y="78" />
            </Array>
          </mxGeometry>
        </mxCell>
        <mxCell id="ijbx-1r0AyTPYO9ze0CY-317" value="" style="group" vertex="1" connectable="0" parent="1">
          <mxGeometry x="-855" y="-330" width="150" height="284.5" as="geometry" />
        </mxCell>
        <mxCell id="ijbx-1r0AyTPYO9ze0CY-241" value="anomaly type crud" style="html=1;whiteSpace=wrap;" vertex="1" parent="ijbx-1r0AyTPYO9ze0CY-317">
          <mxGeometry x="20" width="130" height="30" as="geometry" />
        </mxCell>
        <mxCell id="ijbx-1r0AyTPYO9ze0CY-285" value="retrieve anomaly type" style="html=1;whiteSpace=wrap;" vertex="1" parent="ijbx-1r0AyTPYO9ze0CY-317">
          <mxGeometry x="20" y="153.5" width="130" height="30" as="geometry" />
        </mxCell>
        <mxCell id="ijbx-1r0AyTPYO9ze0CY-286" value="modify anomaly type" style="html=1;whiteSpace=wrap;" vertex="1" parent="ijbx-1r0AyTPYO9ze0CY-317">
          <mxGeometry x="20" y="204.5" width="130" height="30" as="geometry" />
        </mxCell>
        <mxCell id="ijbx-1r0AyTPYO9ze0CY-287" value="unregister anomaly type" style="html=1;whiteSpace=wrap;" vertex="1" parent="ijbx-1r0AyTPYO9ze0CY-317">
          <mxGeometry x="20" y="254.5" width="130" height="30" as="geometry" />
        </mxCell>
        <mxCell id="ijbx-1r0AyTPYO9ze0CY-288" value="" style="rhombus;whiteSpace=wrap;html=1;" vertex="1" parent="ijbx-1r0AyTPYO9ze0CY-317">
          <mxGeometry x="75" y="52.5" width="20" height="30" as="geometry" />
        </mxCell>
        <mxCell id="ijbx-1r0AyTPYO9ze0CY-289" value="" style="html=1;verticalAlign=bottom;endArrow=block;edgeStyle=elbowEdgeStyle;elbow=vertical;curved=0;rounded=0;entryX=0.5;entryY=0;entryDx=0;entryDy=0;exitX=0.5;exitY=1;exitDx=0;exitDy=0;" edge="1" parent="ijbx-1r0AyTPYO9ze0CY-317" target="ijbx-1r0AyTPYO9ze0CY-288">
          <mxGeometry x="-0.0024" width="80" relative="1" as="geometry">
            <mxPoint x="85" y="30" as="sourcePoint" />
            <mxPoint x="460" y="-48" as="targetPoint" />
            <mxPoint as="offset" />
            <Array as="points" />
          </mxGeometry>
        </mxCell>
        <mxCell id="ijbx-1r0AyTPYO9ze0CY-290" value="" style="html=1;verticalAlign=bottom;endArrow=block;edgeStyle=elbowEdgeStyle;elbow=vertical;curved=0;rounded=0;entryX=0;entryY=0.75;entryDx=0;entryDy=0;exitX=0;exitY=0.5;exitDx=0;exitDy=0;" edge="1" parent="ijbx-1r0AyTPYO9ze0CY-317" source="ijbx-1r0AyTPYO9ze0CY-288" target="ijbx-1r0AyTPYO9ze0CY-285">
          <mxGeometry x="-0.0024" width="80" relative="1" as="geometry">
            <mxPoint x="95" y="40" as="sourcePoint" />
            <mxPoint x="95" y="63" as="targetPoint" />
            <mxPoint as="offset" />
            <Array as="points">
              <mxPoint y="92" />
              <mxPoint x="50" y="68" />
            </Array>
          </mxGeometry>
        </mxCell>
        <mxCell id="ijbx-1r0AyTPYO9ze0CY-291" value="" style="html=1;verticalAlign=bottom;endArrow=block;edgeStyle=elbowEdgeStyle;elbow=vertical;curved=0;rounded=0;entryX=0;entryY=0.5;entryDx=0;entryDy=0;exitX=0;exitY=0.5;exitDx=0;exitDy=0;" edge="1" parent="ijbx-1r0AyTPYO9ze0CY-317" source="ijbx-1r0AyTPYO9ze0CY-288" target="ijbx-1r0AyTPYO9ze0CY-286">
          <mxGeometry x="-0.0024" width="80" relative="1" as="geometry">
            <mxPoint x="85" y="78" as="sourcePoint" />
            <mxPoint x="30" y="135" as="targetPoint" />
            <mxPoint as="offset" />
            <Array as="points">
              <mxPoint y="120" />
              <mxPoint x="60" y="78" />
            </Array>
          </mxGeometry>
        </mxCell>
        <mxCell id="ijbx-1r0AyTPYO9ze0CY-292" value="" style="html=1;verticalAlign=bottom;endArrow=block;edgeStyle=elbowEdgeStyle;elbow=vertical;curved=0;rounded=0;entryX=0;entryY=0.5;entryDx=0;entryDy=0;exitX=0;exitY=0.5;exitDx=0;exitDy=0;" edge="1" parent="ijbx-1r0AyTPYO9ze0CY-317" source="ijbx-1r0AyTPYO9ze0CY-288" target="ijbx-1r0AyTPYO9ze0CY-287">
          <mxGeometry x="-0.0024" width="80" relative="1" as="geometry">
            <mxPoint x="85" y="78" as="sourcePoint" />
            <mxPoint x="30" y="179" as="targetPoint" />
            <mxPoint as="offset" />
            <Array as="points">
              <mxPoint y="150" />
              <mxPoint x="50" y="68" />
              <mxPoint x="70" y="88" />
            </Array>
          </mxGeometry>
        </mxCell>
        <mxCell id="ijbx-1r0AyTPYO9ze0CY-294" value="register anomaly type" style="html=1;whiteSpace=wrap;" vertex="1" parent="ijbx-1r0AyTPYO9ze0CY-317">
          <mxGeometry x="20" y="102.5" width="130" height="30" as="geometry" />
        </mxCell>
        <mxCell id="ijbx-1r0AyTPYO9ze0CY-295" value="" style="html=1;verticalAlign=bottom;endArrow=block;edgeStyle=elbowEdgeStyle;elbow=vertical;curved=0;rounded=0;entryX=0;entryY=0.5;entryDx=0;entryDy=0;exitX=0;exitY=0.5;exitDx=0;exitDy=0;" edge="1" parent="ijbx-1r0AyTPYO9ze0CY-317" source="ijbx-1r0AyTPYO9ze0CY-288" target="ijbx-1r0AyTPYO9ze0CY-294">
          <mxGeometry x="-0.0024" width="80" relative="1" as="geometry">
            <mxPoint x="85" y="78" as="sourcePoint" />
            <mxPoint x="30" y="186" as="targetPoint" />
            <mxPoint as="offset" />
            <Array as="points">
              <mxPoint y="90" />
              <mxPoint x="45" y="68" />
              <mxPoint x="60" y="78" />
            </Array>
          </mxGeometry>
        </mxCell>
        <mxCell id="ijbx-1r0AyTPYO9ze0CY-318" value="" style="group" vertex="1" connectable="0" parent="1">
          <mxGeometry x="-1025" y="-330" width="155" height="284.5" as="geometry" />
        </mxCell>
        <mxCell id="ijbx-1r0AyTPYO9ze0CY-243" value="hw device crud" style="html=1;whiteSpace=wrap;" vertex="1" parent="ijbx-1r0AyTPYO9ze0CY-318">
          <mxGeometry x="20" width="130" height="30" as="geometry" />
        </mxCell>
        <mxCell id="ijbx-1r0AyTPYO9ze0CY-274" value="retrieve hw device" style="html=1;whiteSpace=wrap;" vertex="1" parent="ijbx-1r0AyTPYO9ze0CY-318">
          <mxGeometry x="25" y="153.5" width="130" height="30" as="geometry" />
        </mxCell>
        <mxCell id="ijbx-1r0AyTPYO9ze0CY-275" value="modify hw device" style="html=1;whiteSpace=wrap;" vertex="1" parent="ijbx-1r0AyTPYO9ze0CY-318">
          <mxGeometry x="25" y="204.5" width="130" height="30" as="geometry" />
        </mxCell>
        <mxCell id="ijbx-1r0AyTPYO9ze0CY-276" value="unregister hw device" style="html=1;whiteSpace=wrap;" vertex="1" parent="ijbx-1r0AyTPYO9ze0CY-318">
          <mxGeometry x="25" y="254.5" width="130" height="30" as="geometry" />
        </mxCell>
        <mxCell id="ijbx-1r0AyTPYO9ze0CY-277" value="" style="rhombus;whiteSpace=wrap;html=1;" vertex="1" parent="ijbx-1r0AyTPYO9ze0CY-318">
          <mxGeometry x="80" y="52.5" width="20" height="30" as="geometry" />
        </mxCell>
        <mxCell id="ijbx-1r0AyTPYO9ze0CY-278" value="" style="html=1;verticalAlign=bottom;endArrow=block;edgeStyle=elbowEdgeStyle;elbow=vertical;curved=0;rounded=0;entryX=0.5;entryY=0;entryDx=0;entryDy=0;exitX=0.5;exitY=1;exitDx=0;exitDy=0;" edge="1" parent="ijbx-1r0AyTPYO9ze0CY-318" target="ijbx-1r0AyTPYO9ze0CY-277">
          <mxGeometry x="-0.0024" width="80" relative="1" as="geometry">
            <mxPoint x="90" y="30" as="sourcePoint" />
            <mxPoint x="465" y="-48" as="targetPoint" />
            <mxPoint as="offset" />
            <Array as="points" />
          </mxGeometry>
        </mxCell>
        <mxCell id="ijbx-1r0AyTPYO9ze0CY-279" value="" style="html=1;verticalAlign=bottom;endArrow=block;edgeStyle=elbowEdgeStyle;elbow=vertical;curved=0;rounded=0;entryX=0;entryY=0.75;entryDx=0;entryDy=0;exitX=0;exitY=0.5;exitDx=0;exitDy=0;" edge="1" parent="ijbx-1r0AyTPYO9ze0CY-318" source="ijbx-1r0AyTPYO9ze0CY-277" target="ijbx-1r0AyTPYO9ze0CY-274">
          <mxGeometry x="-0.0024" width="80" relative="1" as="geometry">
            <mxPoint x="100" y="40" as="sourcePoint" />
            <mxPoint x="100" y="63" as="targetPoint" />
            <mxPoint as="offset" />
            <Array as="points">
              <mxPoint x="5" y="92" />
              <mxPoint x="55" y="68" />
            </Array>
          </mxGeometry>
        </mxCell>
        <mxCell id="ijbx-1r0AyTPYO9ze0CY-280" value="" style="html=1;verticalAlign=bottom;endArrow=block;edgeStyle=elbowEdgeStyle;elbow=vertical;curved=0;rounded=0;entryX=0;entryY=0.5;entryDx=0;entryDy=0;exitX=0;exitY=0.5;exitDx=0;exitDy=0;" edge="1" parent="ijbx-1r0AyTPYO9ze0CY-318" source="ijbx-1r0AyTPYO9ze0CY-277" target="ijbx-1r0AyTPYO9ze0CY-275">
          <mxGeometry x="-0.0024" width="80" relative="1" as="geometry">
            <mxPoint x="90" y="78" as="sourcePoint" />
            <mxPoint x="35" y="135" as="targetPoint" />
            <mxPoint as="offset" />
            <Array as="points">
              <mxPoint x="5" y="120" />
              <mxPoint x="65" y="78" />
            </Array>
          </mxGeometry>
        </mxCell>
        <mxCell id="ijbx-1r0AyTPYO9ze0CY-281" value="" style="html=1;verticalAlign=bottom;endArrow=block;edgeStyle=elbowEdgeStyle;elbow=vertical;curved=0;rounded=0;entryX=0;entryY=0.5;entryDx=0;entryDy=0;exitX=0;exitY=0.5;exitDx=0;exitDy=0;" edge="1" parent="ijbx-1r0AyTPYO9ze0CY-318" source="ijbx-1r0AyTPYO9ze0CY-277" target="ijbx-1r0AyTPYO9ze0CY-276">
          <mxGeometry x="-0.0024" width="80" relative="1" as="geometry">
            <mxPoint x="90" y="78" as="sourcePoint" />
            <mxPoint x="35" y="179" as="targetPoint" />
            <mxPoint as="offset" />
            <Array as="points">
              <mxPoint x="5" y="150" />
              <mxPoint x="55" y="68" />
              <mxPoint x="75" y="88" />
            </Array>
          </mxGeometry>
        </mxCell>
        <mxCell id="ijbx-1r0AyTPYO9ze0CY-282" value="select menu" style="text;html=1;strokeColor=none;fillColor=none;align=center;verticalAlign=middle;whiteSpace=wrap;rounded=0;" vertex="1" parent="ijbx-1r0AyTPYO9ze0CY-318">
          <mxGeometry y="49.5" width="90" height="20.5" as="geometry" />
        </mxCell>
        <mxCell id="ijbx-1r0AyTPYO9ze0CY-283" value="register hw device" style="html=1;whiteSpace=wrap;" vertex="1" parent="ijbx-1r0AyTPYO9ze0CY-318">
          <mxGeometry x="25" y="102.5" width="130" height="30" as="geometry" />
        </mxCell>
        <mxCell id="ijbx-1r0AyTPYO9ze0CY-284" value="" style="html=1;verticalAlign=bottom;endArrow=block;edgeStyle=elbowEdgeStyle;elbow=vertical;curved=0;rounded=0;entryX=0;entryY=0.5;entryDx=0;entryDy=0;exitX=0;exitY=0.5;exitDx=0;exitDy=0;" edge="1" parent="ijbx-1r0AyTPYO9ze0CY-318" source="ijbx-1r0AyTPYO9ze0CY-277" target="ijbx-1r0AyTPYO9ze0CY-283">
          <mxGeometry x="-0.0024" width="80" relative="1" as="geometry">
            <mxPoint x="90" y="78" as="sourcePoint" />
            <mxPoint x="35" y="186" as="targetPoint" />
            <mxPoint as="offset" />
            <Array as="points">
              <mxPoint x="5" y="90" />
              <mxPoint x="50" y="68" />
              <mxPoint x="65" y="78" />
            </Array>
          </mxGeometry>
        </mxCell>
        <mxCell id="ijbx-1r0AyTPYO9ze0CY-319" value="" style="group" vertex="1" connectable="0" parent="1">
          <mxGeometry x="-1195" y="-330" width="155" height="284.5" as="geometry" />
        </mxCell>
        <mxCell id="ijbx-1r0AyTPYO9ze0CY-240" value="managed object crud" style="html=1;whiteSpace=wrap;" vertex="1" parent="ijbx-1r0AyTPYO9ze0CY-319">
          <mxGeometry x="25" width="130" height="30" as="geometry" />
        </mxCell>
        <mxCell id="ijbx-1r0AyTPYO9ze0CY-253" value="retrieve managed object" style="html=1;whiteSpace=wrap;" vertex="1" parent="ijbx-1r0AyTPYO9ze0CY-319">
          <mxGeometry x="25" y="153.5" width="130" height="30" as="geometry" />
        </mxCell>
        <mxCell id="ijbx-1r0AyTPYO9ze0CY-254" value="modify managed object" style="html=1;whiteSpace=wrap;" vertex="1" parent="ijbx-1r0AyTPYO9ze0CY-319">
          <mxGeometry x="25" y="204.5" width="130" height="30" as="geometry" />
        </mxCell>
        <mxCell id="ijbx-1r0AyTPYO9ze0CY-255" value="unregister managed object" style="html=1;whiteSpace=wrap;" vertex="1" parent="ijbx-1r0AyTPYO9ze0CY-319">
          <mxGeometry x="25" y="254.5" width="130" height="30" as="geometry" />
        </mxCell>
        <mxCell id="ijbx-1r0AyTPYO9ze0CY-256" value="" style="rhombus;whiteSpace=wrap;html=1;" vertex="1" parent="ijbx-1r0AyTPYO9ze0CY-319">
          <mxGeometry x="80" y="52.5" width="20" height="30" as="geometry" />
        </mxCell>
        <mxCell id="ijbx-1r0AyTPYO9ze0CY-257" value="" style="html=1;verticalAlign=bottom;endArrow=block;edgeStyle=elbowEdgeStyle;elbow=vertical;curved=0;rounded=0;entryX=0.5;entryY=0;entryDx=0;entryDy=0;exitX=0.5;exitY=1;exitDx=0;exitDy=0;" edge="1" parent="ijbx-1r0AyTPYO9ze0CY-319" target="ijbx-1r0AyTPYO9ze0CY-256">
          <mxGeometry x="-0.0024" width="80" relative="1" as="geometry">
            <mxPoint x="90" y="30" as="sourcePoint" />
            <mxPoint x="465" y="-48" as="targetPoint" />
            <mxPoint as="offset" />
            <Array as="points" />
          </mxGeometry>
        </mxCell>
        <mxCell id="ijbx-1r0AyTPYO9ze0CY-258" value="" style="html=1;verticalAlign=bottom;endArrow=block;edgeStyle=elbowEdgeStyle;elbow=vertical;curved=0;rounded=0;entryX=0;entryY=0.75;entryDx=0;entryDy=0;exitX=0;exitY=0.5;exitDx=0;exitDy=0;" edge="1" parent="ijbx-1r0AyTPYO9ze0CY-319" source="ijbx-1r0AyTPYO9ze0CY-256" target="ijbx-1r0AyTPYO9ze0CY-253">
          <mxGeometry x="-0.0024" width="80" relative="1" as="geometry">
            <mxPoint x="100" y="40" as="sourcePoint" />
            <mxPoint x="100" y="63" as="targetPoint" />
            <mxPoint as="offset" />
            <Array as="points">
              <mxPoint x="5" y="92" />
              <mxPoint x="55" y="68" />
            </Array>
          </mxGeometry>
        </mxCell>
        <mxCell id="ijbx-1r0AyTPYO9ze0CY-259" value="" style="html=1;verticalAlign=bottom;endArrow=block;edgeStyle=elbowEdgeStyle;elbow=vertical;curved=0;rounded=0;entryX=0;entryY=0.5;entryDx=0;entryDy=0;exitX=0;exitY=0.5;exitDx=0;exitDy=0;" edge="1" parent="ijbx-1r0AyTPYO9ze0CY-319" source="ijbx-1r0AyTPYO9ze0CY-256" target="ijbx-1r0AyTPYO9ze0CY-254">
          <mxGeometry x="-0.0024" width="80" relative="1" as="geometry">
            <mxPoint x="90" y="78" as="sourcePoint" />
            <mxPoint x="35" y="135" as="targetPoint" />
            <mxPoint as="offset" />
            <Array as="points">
              <mxPoint x="5" y="120" />
              <mxPoint x="65" y="78" />
            </Array>
          </mxGeometry>
        </mxCell>
        <mxCell id="ijbx-1r0AyTPYO9ze0CY-260" value="" style="html=1;verticalAlign=bottom;endArrow=block;edgeStyle=elbowEdgeStyle;elbow=vertical;curved=0;rounded=0;entryX=0;entryY=0.5;entryDx=0;entryDy=0;exitX=0;exitY=0.5;exitDx=0;exitDy=0;" edge="1" parent="ijbx-1r0AyTPYO9ze0CY-319" source="ijbx-1r0AyTPYO9ze0CY-256" target="ijbx-1r0AyTPYO9ze0CY-255">
          <mxGeometry x="-0.0024" width="80" relative="1" as="geometry">
            <mxPoint x="90" y="78" as="sourcePoint" />
            <mxPoint x="35" y="179" as="targetPoint" />
            <mxPoint as="offset" />
            <Array as="points">
              <mxPoint x="5" y="150" />
              <mxPoint x="55" y="68" />
              <mxPoint x="75" y="88" />
            </Array>
          </mxGeometry>
        </mxCell>
        <mxCell id="ijbx-1r0AyTPYO9ze0CY-261" value="select menu" style="text;html=1;strokeColor=none;fillColor=none;align=center;verticalAlign=middle;whiteSpace=wrap;rounded=0;" vertex="1" parent="ijbx-1r0AyTPYO9ze0CY-319">
          <mxGeometry y="49.5" width="90" height="20.5" as="geometry" />
        </mxCell>
        <mxCell id="ijbx-1r0AyTPYO9ze0CY-271" value="register managed object" style="html=1;whiteSpace=wrap;" vertex="1" parent="ijbx-1r0AyTPYO9ze0CY-319">
          <mxGeometry x="25" y="102.5" width="130" height="30" as="geometry" />
        </mxCell>
        <mxCell id="ijbx-1r0AyTPYO9ze0CY-273" value="" style="html=1;verticalAlign=bottom;endArrow=block;edgeStyle=elbowEdgeStyle;elbow=vertical;curved=0;rounded=0;entryX=0;entryY=0.5;entryDx=0;entryDy=0;exitX=0;exitY=0.5;exitDx=0;exitDy=0;" edge="1" parent="ijbx-1r0AyTPYO9ze0CY-319" source="ijbx-1r0AyTPYO9ze0CY-256" target="ijbx-1r0AyTPYO9ze0CY-271">
          <mxGeometry x="-0.0024" width="80" relative="1" as="geometry">
            <mxPoint x="90" y="78" as="sourcePoint" />
            <mxPoint x="35" y="186" as="targetPoint" />
            <mxPoint as="offset" />
            <Array as="points">
              <mxPoint x="5" y="90" />
              <mxPoint x="50" y="68" />
              <mxPoint x="65" y="78" />
            </Array>
          </mxGeometry>
        </mxCell>
        <mxCell id="ijbx-1r0AyTPYO9ze0CY-320" value="" style="group" vertex="1" connectable="0" parent="1">
          <mxGeometry x="-1380" y="-330" width="150" height="233.5" as="geometry" />
        </mxCell>
        <mxCell id="ijbx-1r0AyTPYO9ze0CY-222" value="view manager profile" style="html=1;whiteSpace=wrap;" vertex="1" parent="ijbx-1r0AyTPYO9ze0CY-320">
          <mxGeometry x="20" y="102.5" width="130" height="30" as="geometry" />
        </mxCell>
        <mxCell id="ijbx-1r0AyTPYO9ze0CY-223" value="update manager profile" style="html=1;whiteSpace=wrap;" vertex="1" parent="ijbx-1r0AyTPYO9ze0CY-320">
          <mxGeometry x="20" y="153.5" width="130" height="30" as="geometry" />
        </mxCell>
        <mxCell id="ijbx-1r0AyTPYO9ze0CY-224" value="delete manager profile" style="html=1;whiteSpace=wrap;" vertex="1" parent="ijbx-1r0AyTPYO9ze0CY-320">
          <mxGeometry x="20" y="203.5" width="130" height="30" as="geometry" />
        </mxCell>
        <mxCell id="ijbx-1r0AyTPYO9ze0CY-239" value="manager crud" style="html=1;whiteSpace=wrap;" vertex="1" parent="ijbx-1r0AyTPYO9ze0CY-320">
          <mxGeometry x="20" width="130" height="30" as="geometry" />
        </mxCell>
        <mxCell id="ijbx-1r0AyTPYO9ze0CY-245" value="" style="rhombus;whiteSpace=wrap;html=1;" vertex="1" parent="ijbx-1r0AyTPYO9ze0CY-320">
          <mxGeometry x="75" y="52.5" width="20" height="30" as="geometry" />
        </mxCell>
        <mxCell id="ijbx-1r0AyTPYO9ze0CY-246" value="" style="html=1;verticalAlign=bottom;endArrow=block;edgeStyle=elbowEdgeStyle;elbow=vertical;curved=0;rounded=0;entryX=0.5;entryY=0;entryDx=0;entryDy=0;exitX=0.5;exitY=1;exitDx=0;exitDy=0;" edge="1" parent="ijbx-1r0AyTPYO9ze0CY-320" source="ijbx-1r0AyTPYO9ze0CY-239" target="ijbx-1r0AyTPYO9ze0CY-245">
          <mxGeometry x="-0.0024" width="80" relative="1" as="geometry">
            <mxPoint x="460" y="-68" as="sourcePoint" />
            <mxPoint x="460" y="-48" as="targetPoint" />
            <mxPoint as="offset" />
            <Array as="points" />
          </mxGeometry>
        </mxCell>
        <mxCell id="ijbx-1r0AyTPYO9ze0CY-247" value="" style="html=1;verticalAlign=bottom;endArrow=block;edgeStyle=elbowEdgeStyle;elbow=vertical;curved=0;rounded=0;entryX=0;entryY=0.75;entryDx=0;entryDy=0;exitX=0;exitY=0.5;exitDx=0;exitDy=0;" edge="1" parent="ijbx-1r0AyTPYO9ze0CY-320" source="ijbx-1r0AyTPYO9ze0CY-245" target="ijbx-1r0AyTPYO9ze0CY-222">
          <mxGeometry x="-0.0024" width="80" relative="1" as="geometry">
            <mxPoint x="95" y="40" as="sourcePoint" />
            <mxPoint x="95" y="63" as="targetPoint" />
            <mxPoint as="offset" />
            <Array as="points">
              <mxPoint y="92" />
              <mxPoint x="50" y="68" />
            </Array>
          </mxGeometry>
        </mxCell>
        <mxCell id="ijbx-1r0AyTPYO9ze0CY-249" value="" style="html=1;verticalAlign=bottom;endArrow=block;edgeStyle=elbowEdgeStyle;elbow=vertical;curved=0;rounded=0;entryX=0;entryY=0.5;entryDx=0;entryDy=0;exitX=0;exitY=0.5;exitDx=0;exitDy=0;" edge="1" parent="ijbx-1r0AyTPYO9ze0CY-320" source="ijbx-1r0AyTPYO9ze0CY-245" target="ijbx-1r0AyTPYO9ze0CY-223">
          <mxGeometry x="-0.0024" width="80" relative="1" as="geometry">
            <mxPoint x="85" y="78" as="sourcePoint" />
            <mxPoint x="30" y="135" as="targetPoint" />
            <mxPoint as="offset" />
            <Array as="points">
              <mxPoint y="120" />
              <mxPoint x="60" y="78" />
            </Array>
          </mxGeometry>
        </mxCell>
        <mxCell id="ijbx-1r0AyTPYO9ze0CY-250" value="" style="html=1;verticalAlign=bottom;endArrow=block;edgeStyle=elbowEdgeStyle;elbow=vertical;curved=0;rounded=0;entryX=0;entryY=0.5;entryDx=0;entryDy=0;exitX=0;exitY=0.5;exitDx=0;exitDy=0;" edge="1" parent="ijbx-1r0AyTPYO9ze0CY-320" source="ijbx-1r0AyTPYO9ze0CY-245" target="ijbx-1r0AyTPYO9ze0CY-224">
          <mxGeometry x="-0.0024" width="80" relative="1" as="geometry">
            <mxPoint x="85" y="78" as="sourcePoint" />
            <mxPoint x="30" y="179" as="targetPoint" />
            <mxPoint as="offset" />
            <Array as="points">
              <mxPoint y="150" />
              <mxPoint x="50" y="68" />
              <mxPoint x="70" y="88" />
            </Array>
          </mxGeometry>
        </mxCell>
        <mxCell id="ijbx-1r0AyTPYO9ze0CY-252" value="select menu" style="text;html=1;strokeColor=none;fillColor=none;align=center;verticalAlign=middle;whiteSpace=wrap;rounded=0;" vertex="1" parent="ijbx-1r0AyTPYO9ze0CY-320">
          <mxGeometry y="40" width="90" height="30" as="geometry" />
        </mxCell>
        <mxCell id="ijbx-1r0AyTPYO9ze0CY-321" value="" style="group" vertex="1" connectable="0" parent="1">
          <mxGeometry x="-1730" y="-510" width="200" height="380" as="geometry" />
        </mxCell>
        <mxCell id="ijbx-1r0AyTPYO9ze0CY-197" value="display worker menu" style="html=1;whiteSpace=wrap;" vertex="1" parent="ijbx-1r0AyTPYO9ze0CY-321">
          <mxGeometry x="30" y="80" width="130" height="30" as="geometry" />
        </mxCell>
        <mxCell id="ijbx-1r0AyTPYO9ze0CY-201" value="" style="rhombus;whiteSpace=wrap;html=1;" vertex="1" parent="ijbx-1r0AyTPYO9ze0CY-321">
          <mxGeometry x="85" y="130.5" width="20" height="30" as="geometry" />
        </mxCell>
        <mxCell id="ijbx-1r0AyTPYO9ze0CY-202" value="" style="html=1;verticalAlign=bottom;endArrow=block;edgeStyle=elbowEdgeStyle;elbow=vertical;curved=0;rounded=0;entryX=0.5;entryY=0;entryDx=0;entryDy=0;" edge="1" parent="ijbx-1r0AyTPYO9ze0CY-321" target="ijbx-1r0AyTPYO9ze0CY-201">
          <mxGeometry x="-0.0024" width="80" relative="1" as="geometry">
            <mxPoint x="95" y="110.5" as="sourcePoint" />
            <mxPoint x="205" y="21.5" as="targetPoint" />
            <mxPoint as="offset" />
            <Array as="points" />
          </mxGeometry>
        </mxCell>
        <mxCell id="ijbx-1r0AyTPYO9ze0CY-203" value="view worker profile" style="html=1;whiteSpace=wrap;" vertex="1" parent="ijbx-1r0AyTPYO9ze0CY-321">
          <mxGeometry x="31" y="180" width="130" height="30" as="geometry" />
        </mxCell>
        <mxCell id="ijbx-1r0AyTPYO9ze0CY-204" value="update worker profile" style="html=1;whiteSpace=wrap;" vertex="1" parent="ijbx-1r0AyTPYO9ze0CY-321">
          <mxGeometry x="31" y="231" width="130" height="30" as="geometry" />
        </mxCell>
        <mxCell id="ijbx-1r0AyTPYO9ze0CY-205" value="delete worker profile" style="html=1;whiteSpace=wrap;" vertex="1" parent="ijbx-1r0AyTPYO9ze0CY-321">
          <mxGeometry x="31" y="281" width="130" height="30" as="geometry" />
        </mxCell>
        <mxCell id="ijbx-1r0AyTPYO9ze0CY-206" value="view report" style="html=1;whiteSpace=wrap;" vertex="1" parent="ijbx-1r0AyTPYO9ze0CY-321">
          <mxGeometry x="31" y="331" width="130" height="30" as="geometry" />
        </mxCell>
        <mxCell id="ijbx-1r0AyTPYO9ze0CY-207" value="" style="html=1;verticalAlign=bottom;endArrow=block;edgeStyle=elbowEdgeStyle;elbow=vertical;curved=0;rounded=0;entryX=0;entryY=0.5;entryDx=0;entryDy=0;exitX=0;exitY=0.5;exitDx=0;exitDy=0;" edge="1" parent="ijbx-1r0AyTPYO9ze0CY-321" source="ijbx-1r0AyTPYO9ze0CY-201" target="ijbx-1r0AyTPYO9ze0CY-203">
          <mxGeometry x="-0.0024" width="80" relative="1" as="geometry">
            <mxPoint x="95" y="80.5" as="sourcePoint" />
            <mxPoint x="105" y="60.5" as="targetPoint" />
            <mxPoint as="offset" />
            <Array as="points">
              <mxPoint y="80.5" />
              <mxPoint x="50" y="65.5" />
            </Array>
          </mxGeometry>
        </mxCell>
        <mxCell id="ijbx-1r0AyTPYO9ze0CY-208" value="" style="html=1;verticalAlign=bottom;endArrow=block;edgeStyle=elbowEdgeStyle;elbow=vertical;curved=0;rounded=0;entryX=0;entryY=0.5;entryDx=0;entryDy=0;exitX=0;exitY=0.5;exitDx=0;exitDy=0;" edge="1" parent="ijbx-1r0AyTPYO9ze0CY-321" source="ijbx-1r0AyTPYO9ze0CY-201" target="ijbx-1r0AyTPYO9ze0CY-204">
          <mxGeometry x="-0.0024" width="80" relative="1" as="geometry">
            <mxPoint x="95" y="75.5" as="sourcePoint" />
            <mxPoint x="40" y="124.5" as="targetPoint" />
            <mxPoint as="offset" />
            <Array as="points">
              <mxPoint y="120.5" />
              <mxPoint x="60" y="75.5" />
            </Array>
          </mxGeometry>
        </mxCell>
        <mxCell id="ijbx-1r0AyTPYO9ze0CY-209" value="" style="html=1;verticalAlign=bottom;endArrow=block;edgeStyle=elbowEdgeStyle;elbow=vertical;curved=0;rounded=0;entryX=0;entryY=0.5;entryDx=0;entryDy=0;exitX=0;exitY=0.5;exitDx=0;exitDy=0;" edge="1" parent="ijbx-1r0AyTPYO9ze0CY-321" source="ijbx-1r0AyTPYO9ze0CY-201" target="ijbx-1r0AyTPYO9ze0CY-205">
          <mxGeometry x="-0.0024" width="80" relative="1" as="geometry">
            <mxPoint x="95" y="75.5" as="sourcePoint" />
            <mxPoint x="40" y="175.5" as="targetPoint" />
            <mxPoint as="offset" />
            <Array as="points">
              <mxPoint y="140.5" />
              <mxPoint x="70" y="85.5" />
            </Array>
          </mxGeometry>
        </mxCell>
        <mxCell id="ijbx-1r0AyTPYO9ze0CY-210" value="" style="html=1;verticalAlign=bottom;endArrow=block;edgeStyle=elbowEdgeStyle;elbow=vertical;curved=0;rounded=0;entryX=0;entryY=0.75;entryDx=0;entryDy=0;exitX=0;exitY=0.5;exitDx=0;exitDy=0;" edge="1" parent="ijbx-1r0AyTPYO9ze0CY-321" source="ijbx-1r0AyTPYO9ze0CY-201" target="ijbx-1r0AyTPYO9ze0CY-206">
          <mxGeometry x="-0.0024" width="80" relative="1" as="geometry">
            <mxPoint x="95" y="75.5" as="sourcePoint" />
            <mxPoint x="40" y="225.5" as="targetPoint" />
            <mxPoint as="offset" />
            <Array as="points">
              <mxPoint y="65.5" />
              <mxPoint x="80" y="95.5" />
            </Array>
          </mxGeometry>
        </mxCell>
        <mxCell id="ijbx-1r0AyTPYO9ze0CY-231" value="" style="group" vertex="1" connectable="0" parent="ijbx-1r0AyTPYO9ze0CY-321">
          <mxGeometry x="30" y="430.5" width="140" height="30" as="geometry" />
        </mxCell>
        <mxCell id="ijbx-1r0AyTPYO9ze0CY-232" value="generating report" style="rounded=0;whiteSpace=wrap;html=1;" vertex="1" parent="ijbx-1r0AyTPYO9ze0CY-231">
          <mxGeometry width="115.86206896551725" height="30" as="geometry" />
        </mxCell>
        <mxCell id="ijbx-1r0AyTPYO9ze0CY-233" value="" style="endArrow=none;html=1;rounded=0;entryX=1;entryY=0;entryDx=0;entryDy=0;" edge="1" parent="ijbx-1r0AyTPYO9ze0CY-231" target="ijbx-1r0AyTPYO9ze0CY-232">
          <mxGeometry width="50" height="50" relative="1" as="geometry">
            <mxPoint x="140" y="15" as="sourcePoint" />
            <mxPoint x="62.758620689655174" y="-10" as="targetPoint" />
          </mxGeometry>
        </mxCell>
        <mxCell id="ijbx-1r0AyTPYO9ze0CY-234" value="" style="endArrow=none;html=1;rounded=0;entryX=1;entryY=1;entryDx=0;entryDy=0;" edge="1" parent="ijbx-1r0AyTPYO9ze0CY-231" target="ijbx-1r0AyTPYO9ze0CY-232">
          <mxGeometry width="50" height="50" relative="1" as="geometry">
            <mxPoint x="140" y="15" as="sourcePoint" />
            <mxPoint x="123.58620689655173" y="5" as="targetPoint" />
          </mxGeometry>
        </mxCell>
        <mxCell id="ijbx-1r0AyTPYO9ze0CY-235" value="" style="endArrow=none;html=1;rounded=0;entryX=1;entryY=0;entryDx=0;entryDy=0;strokeColor=#ffffff;exitX=1;exitY=0.935;exitDx=0;exitDy=0;exitPerimeter=0;strokeWidth=2;" edge="1" parent="ijbx-1r0AyTPYO9ze0CY-231">
          <mxGeometry width="50" height="50" relative="1" as="geometry">
            <mxPoint x="115.86206896551725" y="29.05000000000001" as="sourcePoint" />
            <mxPoint x="115.86206896551725" y="0.5" as="targetPoint" />
          </mxGeometry>
        </mxCell>
        <mxCell id="ijbx-1r0AyTPYO9ze0CY-236" value="enter period" style="html=1;whiteSpace=wrap;" vertex="1" parent="ijbx-1r0AyTPYO9ze0CY-321">
          <mxGeometry x="31" y="380.5" width="130" height="30" as="geometry" />
        </mxCell>
        <mxCell id="ijbx-1r0AyTPYO9ze0CY-237" value="" style="html=1;verticalAlign=bottom;endArrow=block;edgeStyle=elbowEdgeStyle;elbow=vertical;curved=0;rounded=0;entryX=0.5;entryY=0;entryDx=0;entryDy=0;exitX=0.5;exitY=1;exitDx=0;exitDy=0;" edge="1" parent="ijbx-1r0AyTPYO9ze0CY-321" source="ijbx-1r0AyTPYO9ze0CY-206" target="ijbx-1r0AyTPYO9ze0CY-236">
          <mxGeometry x="-0.0024" width="80" relative="1" as="geometry">
            <mxPoint x="181" y="180.5" as="sourcePoint" />
            <mxPoint x="106" y="141.5" as="targetPoint" />
            <mxPoint as="offset" />
            <Array as="points" />
          </mxGeometry>
        </mxCell>
        <mxCell id="ijbx-1r0AyTPYO9ze0CY-238" value="" style="html=1;verticalAlign=bottom;endArrow=block;edgeStyle=elbowEdgeStyle;elbow=vertical;curved=0;rounded=0;entryX=0.573;entryY=0.02;entryDx=0;entryDy=0;exitX=0.5;exitY=1;exitDx=0;exitDy=0;entryPerimeter=0;" edge="1" parent="ijbx-1r0AyTPYO9ze0CY-321" source="ijbx-1r0AyTPYO9ze0CY-236" target="ijbx-1r0AyTPYO9ze0CY-232">
          <mxGeometry x="-0.0024" width="80" relative="1" as="geometry">
            <mxPoint x="106" y="371.5" as="sourcePoint" />
            <mxPoint x="106" y="390.5" as="targetPoint" />
            <mxPoint as="offset" />
            <Array as="points">
              <mxPoint x="91" y="420.5" />
            </Array>
          </mxGeometry>
        </mxCell>
        <mxCell id="ijbx-1r0AyTPYO9ze0CY-16" value="&amp;nbsp; &amp;nbsp; Worker Profile Management" style="shape=note;whiteSpace=wrap;html=1;backgroundOutline=1;darkOpacity=0.05;align=left;" vertex="1" parent="ijbx-1r0AyTPYO9ze0CY-321">
          <mxGeometry y="-10" width="200" height="42.5" as="geometry" />
        </mxCell>
        <mxCell id="ijbx-1r0AyTPYO9ze0CY-327" value="log out" style="html=1;whiteSpace=wrap;" vertex="1" parent="1">
          <mxGeometry x="-1700" y="-20" width="130" height="30" as="geometry" />
        </mxCell>
        <mxCell id="ijbx-1r0AyTPYO9ze0CY-330" value="" style="html=1;verticalAlign=bottom;endArrow=block;edgeStyle=elbowEdgeStyle;elbow=vertical;curved=0;rounded=0;entryX=0;entryY=0.5;entryDx=0;entryDy=0;exitX=0;exitY=0.5;exitDx=0;exitDy=0;" edge="1" parent="1" source="ijbx-1r0AyTPYO9ze0CY-201" target="ijbx-1r0AyTPYO9ze0CY-327">
          <mxGeometry x="-0.0024" width="80" relative="1" as="geometry">
            <mxPoint x="-1635" y="-354" as="sourcePoint" />
            <mxPoint x="-1689" y="-146" as="targetPoint" />
            <mxPoint as="offset" />
            <Array as="points">
              <mxPoint x="-1730" y="-190" />
              <mxPoint x="-1640" y="-404.5" />
            </Array>
          </mxGeometry>
        </mxCell>
        <mxCell id="ijbx-1r0AyTPYO9ze0CY-333" value="log out" style="html=1;whiteSpace=wrap;" vertex="1" parent="1">
          <mxGeometry x="-1520" y="-330" width="130" height="30" as="geometry" />
        </mxCell>
        <mxCell id="ijbx-1r0AyTPYO9ze0CY-334" value="" style="html=1;verticalAlign=bottom;endArrow=block;edgeStyle=elbowEdgeStyle;elbow=vertical;curved=0;rounded=0;exitX=0.5;exitY=1;exitDx=0;exitDy=0;entryX=0.5;entryY=0;entryDx=0;entryDy=0;" edge="1" parent="1" source="ijbx-1r0AyTPYO9ze0CY-220" target="ijbx-1r0AyTPYO9ze0CY-333">
          <mxGeometry x="-0.0024" width="80" relative="1" as="geometry">
            <mxPoint x="-1040" y="-430" as="sourcePoint" />
            <mxPoint x="-1285" y="-320" as="targetPoint" />
            <mxPoint as="offset" />
            <Array as="points">
              <mxPoint x="-1250" y="-430" />
            </Array>
          </mxGeometry>
        </mxCell>
        <mxCell id="ijbx-1r0AyTPYO9ze0CY-336" value="" style="html=1;verticalAlign=bottom;endArrow=block;edgeStyle=elbowEdgeStyle;elbow=vertical;curved=0;rounded=0;entryX=0.5;entryY=0;entryDx=0;entryDy=0;" edge="1" parent="1" target="ijbx-1r0AyTPYO9ze0CY-240">
          <mxGeometry x="-0.0024" width="80" relative="1" as="geometry">
            <mxPoint x="-1050" y="-440" as="sourcePoint" />
            <mxPoint x="-1285" y="-320" as="targetPoint" />
            <mxPoint as="offset" />
            <Array as="points">
              <mxPoint x="-1080" y="-430" />
            </Array>
          </mxGeometry>
        </mxCell>
        <mxCell id="ijbx-1r0AyTPYO9ze0CY-337" value="" style="html=1;verticalAlign=bottom;endArrow=block;edgeStyle=elbowEdgeStyle;elbow=vertical;curved=0;rounded=0;entryX=0.5;entryY=0;entryDx=0;entryDy=0;exitX=0.5;exitY=1;exitDx=0;exitDy=0;" edge="1" parent="1" source="ijbx-1r0AyTPYO9ze0CY-220" target="ijbx-1r0AyTPYO9ze0CY-243">
          <mxGeometry x="-0.0024" width="80" relative="1" as="geometry">
            <mxPoint x="-1040" y="-430" as="sourcePoint" />
            <mxPoint x="-1095" y="-320" as="targetPoint" />
            <mxPoint as="offset" />
            <Array as="points">
              <mxPoint x="-990" y="-430" />
            </Array>
          </mxGeometry>
        </mxCell>
        <mxCell id="ijbx-1r0AyTPYO9ze0CY-338" value="" style="html=1;verticalAlign=bottom;endArrow=block;edgeStyle=elbowEdgeStyle;elbow=vertical;curved=0;rounded=0;entryX=0.5;entryY=0;entryDx=0;entryDy=0;exitX=0.5;exitY=1;exitDx=0;exitDy=0;" edge="1" parent="1" source="ijbx-1r0AyTPYO9ze0CY-220" target="ijbx-1r0AyTPYO9ze0CY-241">
          <mxGeometry x="-0.0024" width="80" relative="1" as="geometry">
            <mxPoint x="-1040" y="-430" as="sourcePoint" />
            <mxPoint x="-930" y="-320" as="targetPoint" />
            <mxPoint as="offset" />
            <Array as="points">
              <mxPoint x="-910" y="-430" />
            </Array>
          </mxGeometry>
        </mxCell>
        <mxCell id="ijbx-1r0AyTPYO9ze0CY-339" value="" style="html=1;verticalAlign=bottom;endArrow=block;edgeStyle=elbowEdgeStyle;elbow=vertical;curved=0;rounded=0;" edge="1" parent="1" target="ijbx-1r0AyTPYO9ze0CY-242">
          <mxGeometry x="-0.0024" width="80" relative="1" as="geometry">
            <mxPoint x="-1050" y="-440" as="sourcePoint" />
            <mxPoint x="-760" y="-320" as="targetPoint" />
            <mxPoint as="offset" />
            <Array as="points">
              <mxPoint x="-810" y="-430" />
              <mxPoint x="-820" y="-440" />
            </Array>
          </mxGeometry>
        </mxCell>
        <mxCell id="ijbx-1r0AyTPYO9ze0CY-340" value="" style="html=1;verticalAlign=bottom;endArrow=block;edgeStyle=elbowEdgeStyle;elbow=vertical;curved=0;rounded=0;" edge="1" parent="1" target="ijbx-1r0AyTPYO9ze0CY-244">
          <mxGeometry x="-0.0024" width="80" relative="1" as="geometry">
            <mxPoint x="-1050" y="-440" as="sourcePoint" />
            <mxPoint x="-590" y="-320" as="targetPoint" />
            <mxPoint as="offset" />
            <Array as="points">
              <mxPoint x="-810" y="-430" />
            </Array>
          </mxGeometry>
        </mxCell>
      </root>
    </mxGraphModel>
  </diagram>
</mxfile>
